<svg xmlns="http://www.w3.org/2000/svg" xmlns:xlink="http://www.w3.org/1999/xlink" width="500" zoomAndPan="magnify" viewBox="0 0 375 374.999991" height="500" preserveAspectRatio="xMidYMid meet" version="1.0"><defs><g/></defs><path stroke-linecap="butt" transform="matrix(0.75, 0, 0, 0.75, 16.812656, 299.733614)" fill="none" stroke-linejoin="miter" d="M -0.000207941 10.001015 L 455.166489 10.001015 " stroke="#fffbf6" stroke-width="20" stroke-opacity="1" stroke-miterlimit="4"/><path stroke-linecap="butt" transform="matrix(0.75, 0, 0, 0.75, 16.812656, 60.266362)" fill="none" stroke-linejoin="miter" d="M -0.000207941 9.999017 L 453.291488 9.999017 " stroke="#aaab80" stroke-width="20" stroke-opacity="1" stroke-miterlimit="4"/><path stroke-linecap="butt" transform="matrix(-0.00360641, -0.749991, 0.749991, -0.00360641, 17.743936, 264.040471)" fill="none" stroke-linejoin="miter" d="M 0.000677724 9.997789 L 269.831943 9.99841 " stroke="#aaab80" stroke-width="20" stroke-opacity="1" stroke-miterlimit="4"/><g fill="#aaab80" fill-opacity="1"><g transform="translate(40.218183, 258.626216)"><g><path d="M 28.453125 -16.90625 L 30 -16.90625 L 24.09375 0 L 22.34375 0 L 15.1875 -15.328125 L 8.03125 0 L 6.28125 0 L 0.359375 -16.90625 L 1.921875 -16.90625 L 7.234375 -1.6875 L 14.34375 -16.90625 L 16.03125 -16.90625 L 23.125 -1.6875 Z M 28.453125 -16.90625 "/></g></g></g><g fill="#aaab80" fill-opacity="1"><g transform="translate(71.149334, 258.626216)"><g><path d="M 19.890625 -15.609375 L 4.953125 -15.609375 L 4.953125 -8.875 L 18.84375 -8.875 L 18.84375 -7.578125 L 4.953125 -7.578125 L 4.953125 -1.296875 L 19.890625 -1.296875 L 19.890625 0 L 3.5 0 L 3.5 -16.90625 L 19.890625 -16.90625 Z M 19.890625 -15.609375 "/></g></g></g><g fill="#aaab80" fill-opacity="1"><g transform="translate(93.319547, 258.626216)"><g><path d="M 3.5 0 L 3.5 -16.90625 L 13.796875 -16.90625 C 15.867188 -16.90625 17.359375 -16.554688 18.265625 -15.859375 C 19.179688 -15.160156 19.640625 -14.203125 19.640625 -12.984375 L 19.640625 -12.34375 C 19.640625 -11.363281 19.429688 -10.597656 19.015625 -10.046875 C 18.597656 -9.492188 17.929688 -9.09375 17.015625 -8.84375 C 18.109375 -8.601562 18.898438 -8.179688 19.390625 -7.578125 C 19.890625 -6.972656 20.140625 -6.164062 20.140625 -5.15625 L 20.140625 -4.453125 C 20.140625 -3.023438 19.644531 -1.925781 18.65625 -1.15625 C 17.675781 -0.382812 16.054688 0 13.796875 0 Z M 4.953125 -9.546875 L 13.796875 -9.546875 C 15.398438 -9.546875 16.519531 -9.769531 17.15625 -10.21875 C 17.789062 -10.675781 18.109375 -11.382812 18.109375 -12.34375 L 18.109375 -12.984375 C 18.109375 -13.816406 17.78125 -14.441406 17.125 -14.859375 C 16.46875 -15.285156 15.359375 -15.5 13.796875 -15.5 L 4.953125 -15.5 Z M 4.953125 -1.40625 L 13.796875 -1.40625 C 15.546875 -1.40625 16.785156 -1.660156 17.515625 -2.171875 C 18.253906 -2.691406 18.625 -3.453125 18.625 -4.453125 L 18.625 -5.15625 C 18.625 -6.164062 18.253906 -6.90625 17.515625 -7.375 C 16.785156 -7.84375 15.546875 -8.078125 13.796875 -8.078125 L 4.953125 -8.078125 Z M 4.953125 -1.40625 "/></g></g></g><g fill="#aaab80" fill-opacity="1"><g transform="translate(116.391216, 258.626216)"><g/></g></g><g fill="#aaab80" fill-opacity="1"><g transform="translate(128.222971, 258.626216)"><g><path d="M 12.703125 -16.90625 C 15.367188 -16.90625 17.476562 -16.59375 19.03125 -15.96875 C 20.59375 -15.351562 21.71875 -14.460938 22.40625 -13.296875 C 23.09375 -12.128906 23.4375 -10.722656 23.4375 -9.078125 L 23.4375 -7.828125 C 23.4375 -6.179688 23.09375 -4.773438 22.40625 -3.609375 C 21.71875 -2.441406 20.59375 -1.546875 19.03125 -0.921875 C 17.476562 -0.304688 15.367188 0 12.703125 0 L 3.5 0 L 3.5 -16.90625 Z M 21.921875 -7.828125 L 21.921875 -9.078125 C 21.921875 -10.503906 21.628906 -11.691406 21.046875 -12.640625 C 20.460938 -13.585938 19.5 -14.300781 18.15625 -14.78125 C 16.8125 -15.257812 14.992188 -15.5 12.703125 -15.5 L 4.953125 -15.5 L 4.953125 -1.40625 L 12.703125 -1.40625 C 14.992188 -1.40625 16.8125 -1.644531 18.15625 -2.125 C 19.5 -2.601562 20.460938 -3.316406 21.046875 -4.265625 C 21.628906 -5.210938 21.921875 -6.398438 21.921875 -7.828125 Z M 21.921875 -7.828125 "/></g></g></g><g fill="#aaab80" fill-opacity="1"><g transform="translate(154.477878, 258.626216)"><g><path d="M 19.890625 -15.609375 L 4.953125 -15.609375 L 4.953125 -8.875 L 18.84375 -8.875 L 18.84375 -7.578125 L 4.953125 -7.578125 L 4.953125 -1.296875 L 19.890625 -1.296875 L 19.890625 0 L 3.5 0 L 3.5 -16.90625 L 19.890625 -16.90625 Z M 19.890625 -15.609375 "/></g></g></g><g fill="#aaab80" fill-opacity="1"><g transform="translate(176.648096, 258.626216)"><g><path d="M 18.5625 -16.90625 L 20.234375 -16.90625 L 10.9375 0 L 9.21875 0 L -0.078125 -16.90625 L 1.640625 -16.90625 L 10.109375 -1.515625 Z M 18.5625 -16.90625 "/></g></g></g><g fill="#aaab80" fill-opacity="1"><g transform="translate(197.353471, 258.626216)"><g><path d="M 19.890625 -15.609375 L 4.953125 -15.609375 L 4.953125 -8.875 L 18.84375 -8.875 L 18.84375 -7.578125 L 4.953125 -7.578125 L 4.953125 -1.296875 L 19.890625 -1.296875 L 19.890625 0 L 3.5 0 L 3.5 -16.90625 L 19.890625 -16.90625 Z M 19.890625 -15.609375 "/></g></g></g><g fill="#aaab80" fill-opacity="1"><g transform="translate(219.523689, 258.626216)"><g><path d="M 4.9375 -16.90625 L 4.9375 -1.296875 L 19.015625 -1.296875 L 19.015625 0 L 3.46875 0 L 3.46875 -16.90625 Z M 4.9375 -16.90625 "/></g></g></g><g fill="#aaab80" fill-opacity="1"><g transform="translate(240.229064, 258.626216)"><g><path d="M 12.984375 0.28125 C 9.265625 0.28125 6.546875 -0.4375 4.828125 -1.875 C 3.109375 -3.3125 2.25 -5.296875 2.25 -7.828125 L 2.25 -9.078125 C 2.25 -11.609375 3.109375 -13.59375 4.828125 -15.03125 C 6.546875 -16.46875 9.265625 -17.1875 12.984375 -17.1875 C 16.703125 -17.1875 19.421875 -16.484375 21.140625 -15.078125 C 22.859375 -13.679688 23.71875 -11.71875 23.71875 -9.1875 L 23.71875 -7.9375 C 23.71875 -5.40625 22.859375 -3.398438 21.140625 -1.921875 C 19.421875 -0.453125 16.703125 0.28125 12.984375 0.28125 Z M 12.984375 -1.125 C 16.160156 -1.125 18.488281 -1.691406 19.96875 -2.828125 C 21.457031 -3.960938 22.203125 -5.628906 22.203125 -7.828125 L 22.203125 -9.078125 C 22.203125 -11.273438 21.457031 -12.941406 19.96875 -14.078125 C 18.488281 -15.210938 16.160156 -15.78125 12.984375 -15.78125 C 9.804688 -15.78125 7.476562 -15.210938 6 -14.078125 C 4.519531 -12.941406 3.78125 -11.273438 3.78125 -9.078125 L 3.78125 -7.828125 C 3.78125 -5.628906 4.519531 -3.960938 6 -2.828125 C 7.476562 -1.691406 9.804688 -1.125 12.984375 -1.125 Z M 12.984375 -1.125 "/></g></g></g><g fill="#aaab80" fill-opacity="1"><g transform="translate(266.765673, 258.626216)"><g><path d="M 12.953125 -16.90625 C 14.722656 -16.90625 16.113281 -16.71875 17.125 -16.34375 C 18.144531 -15.976562 18.863281 -15.4375 19.28125 -14.71875 C 19.707031 -14.007812 19.921875 -13.140625 19.921875 -12.109375 L 19.921875 -11.296875 C 19.921875 -10.109375 19.707031 -9.132812 19.28125 -8.375 C 18.863281 -7.613281 18.148438 -7.046875 17.140625 -6.671875 C 16.140625 -6.296875 14.742188 -6.109375 12.953125 -6.109375 L 4.953125 -6.109375 L 4.953125 0 L 3.5 0 L 3.5 -16.90625 Z M 18.390625 -11.296875 L 18.390625 -12.109375 C 18.390625 -13.328125 17.957031 -14.195312 17.09375 -14.71875 C 16.226562 -15.238281 14.847656 -15.5 12.953125 -15.5 L 4.953125 -15.5 L 4.953125 -7.515625 L 12.953125 -7.515625 C 14.910156 -7.515625 16.304688 -7.796875 17.140625 -8.359375 C 17.972656 -8.929688 18.390625 -9.910156 18.390625 -11.296875 Z M 18.390625 -11.296875 "/></g></g></g><g fill="#aaab80" fill-opacity="1"><g transform="translate(288.935891, 258.626216)"><g><path d="M 19.890625 -15.609375 L 4.953125 -15.609375 L 4.953125 -8.875 L 18.84375 -8.875 L 18.84375 -7.578125 L 4.953125 -7.578125 L 4.953125 -1.296875 L 19.890625 -1.296875 L 19.890625 0 L 3.5 0 L 3.5 -16.90625 L 19.890625 -16.90625 Z M 19.890625 -15.609375 "/></g></g></g><g fill="#aaab80" fill-opacity="1"><g transform="translate(311.106109, 258.626216)"><g><path d="M 20.53125 -1.6875 C 20.53125 -1.382812 20.546875 -1.09375 20.578125 -0.8125 C 20.609375 -0.53125 20.640625 -0.257812 20.671875 0 L 19.078125 0 C 19.035156 -0.257812 19.003906 -0.523438 18.984375 -0.796875 C 18.960938 -1.078125 18.953125 -1.335938 18.953125 -1.578125 L 18.953125 -4.390625 C 18.953125 -5.390625 18.613281 -6.113281 17.9375 -6.5625 C 17.269531 -7.007812 16.097656 -7.234375 14.421875 -7.234375 L 5.015625 -7.234375 L 5.015625 0 L 3.5 0 L 3.5 -16.90625 L 14.421875 -16.90625 C 16.578125 -16.90625 18.132812 -16.53125 19.09375 -15.78125 C 20.050781 -15.03125 20.53125 -13.957031 20.53125 -12.5625 L 20.53125 -11.890625 C 20.53125 -10.910156 20.347656 -10.101562 19.984375 -9.46875 C 19.617188 -8.832031 19.035156 -8.332031 18.234375 -7.96875 C 19.035156 -7.65625 19.617188 -7.203125 19.984375 -6.609375 C 20.347656 -6.015625 20.53125 -5.273438 20.53125 -4.390625 Z M 5.015625 -8.703125 L 14.421875 -8.703125 C 16.097656 -8.703125 17.28125 -8.945312 17.96875 -9.4375 C 18.664062 -9.925781 19.015625 -10.742188 19.015625 -11.890625 L 19.015625 -12.5625 C 19.015625 -13.5625 18.664062 -14.300781 17.96875 -14.78125 C 17.28125 -15.257812 16.097656 -15.5 14.421875 -15.5 L 5.015625 -15.5 Z M 5.015625 -8.703125 "/></g></g></g><path stroke-linecap="butt" transform="matrix(-0.00520551, -0.749982, 0.749982, -0.00520551, 343.224445, 264.090743)" fill="none" stroke-linejoin="miter" d="M -0.000483987 9.997853 L 269.886222 10.001259 " stroke="#aaab80" stroke-width="20" stroke-opacity="1" stroke-miterlimit="4"/><g fill="#fffbf6" fill-opacity="1"><g transform="translate(47.389794, 132.713564)"><g><path d="M 4.578125 20.828125 C 4.390625 20.828125 4.160156 20.726562 3.890625 20.53125 C 3.460938 20.226562 3.265625 19.898438 3.296875 19.546875 C 3.335938 19.203125 3.476562 18.796875 3.71875 18.328125 C 3.832031 18.054688 3.90625 17.863281 3.9375 17.75 C 4.632812 15.820312 5.445312 13.992188 6.375 12.265625 C 7.3125 10.546875 8.1875 9.03125 9 7.71875 C 10.34375 5.46875 10.609375 2.703125 9.796875 -0.578125 C 9.109375 -3.242188 7.523438 -5.351562 5.046875 -6.90625 C 4.929688 -6.945312 4.757812 -7.039062 4.53125 -7.1875 C 4.101562 -7.425781 3.765625 -7.640625 3.515625 -7.828125 C 3.265625 -8.023438 3.140625 -8.296875 3.140625 -8.640625 C 3.140625 -9.066406 3.28125 -9.347656 3.5625 -9.484375 C 3.851562 -9.617188 4.210938 -9.742188 4.640625 -9.859375 L 4.984375 -9.921875 C 9.160156 -11.046875 13.125 -11.609375 16.875 -11.609375 C 17.113281 -11.609375 17.425781 -11.609375 17.8125 -11.609375 C 18.195312 -11.609375 18.390625 -11.609375 18.390625 -11.609375 C 20.015625 -11.609375 21.3125 -12.300781 22.28125 -13.6875 C 23.09375 -14.882812 23.894531 -16.082031 24.6875 -17.28125 C 25.476562 -18.488281 26.257812 -19.691406 27.03125 -20.890625 C 29.46875 -24.597656 31.960938 -28.316406 34.515625 -32.046875 C 37.066406 -35.785156 39.8125 -39.351562 42.75 -42.75 C 43.289062 -43.375 43.851562 -43.96875 44.4375 -44.53125 C 45.019531 -45.09375 45.695312 -45.523438 46.46875 -45.828125 C 46.851562 -46.023438 47.203125 -46.125 47.515625 -46.125 C 48.367188 -46.125 49.003906 -45.503906 49.421875 -44.265625 C 49.816406 -43.109375 49.972656 -42.015625 49.890625 -40.984375 C 49.816406 -39.960938 49.703125 -38.945312 49.546875 -37.9375 C 48.691406 -32.875 47.539062 -27.960938 46.09375 -23.203125 C 44.644531 -18.453125 43.164062 -13.773438 41.65625 -9.171875 C 41.269531 -8.117188 40.910156 -7.082031 40.578125 -6.0625 C 40.253906 -5.039062 39.914062 -4.003906 39.5625 -2.953125 C 38.675781 -0.242188 37.757812 2.441406 36.8125 5.109375 C 35.863281 7.773438 34.90625 10.460938 33.9375 13.171875 C 33.894531 13.285156 33.835938 13.457031 33.765625 13.6875 C 33.722656 13.925781 33.65625 14.160156 33.5625 14.390625 C 33.46875 14.617188 33.320312 14.734375 33.125 14.734375 C 32.96875 14.734375 32.773438 14.675781 32.546875 14.5625 C 32.347656 14.445312 32.210938 14.332031 32.140625 14.21875 C 32.066406 14.0625 32.066406 13.875 32.140625 13.65625 C 32.210938 13.445312 32.289062 13.265625 32.375 13.109375 C 32.445312 12.835938 32.503906 12.644531 32.546875 12.53125 C 33.515625 8.507812 34.625 4.523438 35.875 0.578125 C 37.132812 -3.367188 38.40625 -7.234375 39.6875 -11.015625 C 40.570312 -13.578125 41.4375 -16.160156 42.28125 -18.765625 C 43.132812 -21.378906 43.953125 -24 44.734375 -26.625 C 44.890625 -27.132812 45.128906 -27.96875 45.453125 -29.125 C 45.785156 -30.28125 46.132812 -31.59375 46.5 -33.0625 C 46.863281 -34.539062 47.179688 -36.015625 47.453125 -37.484375 C 47.722656 -38.953125 47.90625 -40.234375 48 -41.328125 C 48.101562 -42.429688 48.039062 -43.195312 47.8125 -43.625 C 47.6875 -43.78125 47.550781 -43.894531 47.40625 -43.96875 L 47.34375 -43.96875 L 47.046875 -44.03125 C 46.859375 -44.03125 46.6875 -43.984375 46.53125 -43.890625 C 46.375 -43.796875 46.273438 -43.726562 46.234375 -43.6875 C 45.773438 -43.332031 45.359375 -42.941406 44.984375 -42.515625 C 44.617188 -42.097656 44.265625 -41.675781 43.921875 -41.25 C 43.722656 -41.019531 43.523438 -40.785156 43.328125 -40.546875 C 43.140625 -40.316406 42.945312 -40.085938 42.75 -39.859375 C 41.40625 -38.347656 40.035156 -36.722656 38.640625 -34.984375 C 37.285156 -33.203125 35.988281 -31.410156 34.75 -29.609375 C 33.507812 -27.816406 32.347656 -26.109375 31.265625 -24.484375 L 29.9375 -22.390625 C 28.8125 -20.691406 27.675781 -18.976562 26.53125 -17.25 C 25.394531 -15.53125 24.226562 -13.84375 23.03125 -12.1875 L 22.796875 -11.828125 L 23.328125 -11.828125 C 25.453125 -11.710938 27.429688 -11.566406 29.265625 -11.390625 C 31.109375 -11.222656 32.9375 -10.925781 34.75 -10.5 C 34.832031 -10.457031 34.929688 -10.4375 35.046875 -10.4375 C 35.160156 -10.4375 35.253906 -10.4375 35.328125 -10.4375 C 35.523438 -10.40625 35.695312 -10.378906 35.84375 -10.359375 C 36 -10.335938 36.140625 -10.269531 36.265625 -10.15625 C 36.378906 -10.070312 36.453125 -9.894531 36.484375 -9.625 C 36.523438 -9.238281 36.332031 -9.046875 35.90625 -9.046875 C 35.789062 -9.046875 35.664062 -9.054688 35.53125 -9.078125 C 35.394531 -9.097656 35.25 -9.128906 35.09375 -9.171875 L 34.875 -9.21875 C 34.5625 -9.300781 34.226562 -9.367188 33.875 -9.421875 C 33.53125 -9.484375 33.1875 -9.570312 32.84375 -9.6875 C 32.375 -9.757812 31.894531 -9.851562 31.40625 -9.96875 C 30.925781 -10.09375 30.457031 -10.171875 30 -10.203125 C 28.832031 -10.398438 27.785156 -10.5 26.859375 -10.5 C 23.148438 -10.5 20.519531 -8.953125 18.96875 -5.859375 C 18.3125 -4.546875 17.632812 -3.257812 16.9375 -2 C 16.238281 -0.738281 15.523438 0.503906 14.796875 1.734375 C 13.515625 3.941406 12.253906 6.207031 11.015625 8.53125 C 9.785156 10.851562 8.722656 13.289062 7.828125 15.84375 C 7.597656 16.457031 7.316406 17.046875 6.984375 17.609375 C 6.660156 18.171875 6.320312 18.703125 5.96875 19.203125 C 5.894531 19.316406 5.800781 19.488281 5.6875 19.71875 C 5.570312 19.988281 5.425781 20.238281 5.25 20.46875 C 5.070312 20.707031 4.847656 20.828125 4.578125 20.828125 Z M 19.375 -10.265625 C 18.488281 -10.347656 17.617188 -10.390625 16.765625 -10.390625 C 14.867188 -10.390625 13.066406 -10.242188 11.359375 -9.953125 C 9.660156 -9.660156 8 -9.34375 6.375 -9 C 6.03125 -8.914062 5.800781 -8.816406 5.6875 -8.703125 C 5.570312 -8.585938 5.515625 -8.472656 5.515625 -8.359375 C 5.515625 -8.242188 5.5625 -8.085938 5.65625 -7.890625 C 5.75 -7.691406 5.972656 -7.457031 6.328125 -7.1875 C 9.304688 -4.875 11.023438 -1.6875 11.484375 2.375 L 11.546875 3.140625 L 19.84375 -10.203125 Z M 19.375 -10.265625 "/></g></g></g><g fill="#fffbf6" fill-opacity="1"><g transform="translate(94.08893, 132.713564)"><g><path d="M 31.96875 -9.75 C 32.195312 -9.59375 32.332031 -9.4375 32.375 -9.28125 C 32.414062 -9.125 32.382812 -8.976562 32.28125 -8.84375 C 32.1875 -8.707031 32.082031 -8.582031 31.96875 -8.46875 C 31.8125 -8.3125 31.710938 -8.195312 31.671875 -8.125 C 28.460938 -3.175781 23.921875 0.960938 18.046875 4.296875 C 17.421875 4.640625 16.628906 4.8125 15.671875 4.8125 L 15.546875 4.8125 C 14.578125 4.8125 13.84375 4.5625 13.34375 4.0625 C 12.800781 3.5625 12.53125 2.804688 12.53125 1.796875 C 12.53125 0.910156 12.703125 0.109375 13.046875 -0.609375 C 13.398438 -1.328125 13.769531 -2.015625 14.15625 -2.671875 L 14.734375 -3.59375 C 14.847656 -3.820312 14.972656 -4.050781 15.109375 -4.28125 C 15.242188 -4.519531 15.367188 -4.753906 15.484375 -4.984375 L 15.546875 -5.15625 C 15.628906 -5.3125 15.695312 -5.503906 15.75 -5.734375 C 15.8125 -5.972656 15.707031 -6.226562 15.4375 -6.5 C 15.125 -6.8125 14.753906 -6.96875 14.328125 -6.96875 C 14.171875 -6.96875 14 -6.925781 13.8125 -6.84375 C 13.03125 -6.6875 12.265625 -6.5 11.515625 -6.28125 C 10.765625 -6.070312 10 -5.851562 9.21875 -5.625 C 8.257812 -5.28125 7.320312 -4.875 6.40625 -4.40625 C 5.5 -3.945312 4.617188 -3.460938 3.765625 -2.953125 C 3.378906 -2.765625 3.003906 -2.5625 2.640625 -2.34375 C 2.273438 -2.132812 1.898438 -1.929688 1.515625 -1.734375 L 1.28125 -1.625 C 1.125 -1.507812 0.945312 -1.410156 0.75 -1.328125 C 0.5625 -1.253906 0.367188 -1.21875 0.171875 -1.21875 C -0.171875 -1.21875 -0.535156 -1.375 -0.921875 -1.6875 C -1.347656 -2.070312 -1.5625 -2.425781 -1.5625 -2.75 C -1.5625 -3.082031 -1.523438 -3.421875 -1.453125 -3.765625 L -1.390625 -4 C -0.691406 -7.175781 0.484375 -10 2.140625 -12.46875 L 2.265625 -12.640625 C 2.335938 -12.796875 2.429688 -12.941406 2.546875 -13.078125 C 2.671875 -13.210938 2.804688 -13.28125 2.953125 -13.28125 C 3.078125 -13.28125 3.195312 -13.242188 3.3125 -13.171875 C 3.582031 -13.054688 3.753906 -12.898438 3.828125 -12.703125 C 4.023438 -12.316406 4.035156 -11.863281 3.859375 -11.34375 C 3.679688 -10.820312 3.5 -10.382812 3.3125 -10.03125 C 3.195312 -9.800781 3.140625 -9.648438 3.140625 -9.578125 L 1.109375 -4.296875 C 1.066406 -4.210938 1.023438 -4.082031 0.984375 -3.90625 C 0.941406 -3.738281 1 -3.597656 1.15625 -3.484375 C 1.3125 -3.367188 1.503906 -3.3125 1.734375 -3.3125 C 1.972656 -3.3125 2.242188 -3.359375 2.546875 -3.453125 C 2.859375 -3.546875 3.070312 -3.632812 3.1875 -3.71875 C 3.382812 -3.789062 3.554688 -3.875 3.703125 -3.96875 C 3.859375 -4.070312 4.015625 -4.179688 4.171875 -4.296875 C 4.367188 -4.453125 4.550781 -4.585938 4.71875 -4.703125 C 4.894531 -4.816406 5.082031 -4.910156 5.28125 -4.984375 C 5.894531 -5.296875 6.519531 -5.585938 7.15625 -5.859375 C 7.800781 -6.128906 8.453125 -6.398438 9.109375 -6.671875 C 10.691406 -7.328125 12.179688 -7.753906 13.578125 -7.953125 C 13.804688 -7.984375 14.019531 -8 14.21875 -8 C 15.21875 -8 16.007812 -7.671875 16.59375 -7.015625 C 17.25 -6.285156 17.421875 -5.378906 17.109375 -4.296875 C 16.953125 -3.640625 16.75 -3 16.5 -2.375 C 16.25 -1.757812 16.007812 -1.140625 15.78125 -0.515625 C 15.625 -0.171875 15.476562 0.171875 15.34375 0.515625 C 15.207031 0.867188 15.0625 1.21875 14.90625 1.5625 L 14.859375 1.796875 C 14.734375 1.992188 14.648438 2.226562 14.609375 2.5 C 14.578125 2.769531 14.675781 3.019531 14.90625 3.25 C 15.21875 3.5625 15.566406 3.71875 15.953125 3.71875 C 16.109375 3.71875 16.265625 3.695312 16.421875 3.65625 C 16.578125 3.613281 16.726562 3.570312 16.875 3.53125 C 18.695312 3 20.285156 2.195312 21.640625 1.125 C 22.992188 0.0625 24.210938 -1.007812 25.296875 -2.09375 C 26.179688 -2.976562 27.132812 -3.972656 28.15625 -5.078125 C 29.1875 -6.179688 30.050781 -7.425781 30.75 -8.8125 L 30.859375 -8.9375 C 30.941406 -9.125 31.050781 -9.320312 31.1875 -9.53125 C 31.320312 -9.75 31.484375 -9.859375 31.671875 -9.859375 C 31.753906 -9.859375 31.851562 -9.820312 31.96875 -9.75 Z M 31.96875 -9.75 "/></g></g></g><g fill="#fffbf6" fill-opacity="1"><g transform="translate(125.357083, 132.713564)"><g><path d="M 29.9375 -10.4375 C 30.125 -10.4375 30.253906 -10.414062 30.328125 -10.375 C 30.410156 -10.34375 30.472656 -10.328125 30.515625 -10.328125 C 30.554688 -10.097656 30.375 -9.90625 29.96875 -9.75 C 29.5625 -9.59375 29.222656 -9.476562 28.953125 -9.40625 C 28.796875 -9.363281 28.679688 -9.320312 28.609375 -9.28125 C 27.210938 -8.78125 25.882812 -8.238281 24.625 -7.65625 C 23.363281 -7.070312 22.210938 -6.316406 21.171875 -5.390625 C 19.242188 -3.734375 17.695312 -1.566406 16.53125 1.109375 C 13.550781 8.066406 8.929688 14.738281 2.671875 21.125 C 1.972656 21.8125 1.21875 22.460938 0.40625 23.078125 C -0.40625 23.703125 -1.390625 24.113281 -2.546875 24.3125 C -2.898438 24.34375 -3.226562 24.359375 -3.53125 24.359375 C -4.46875 24.359375 -5.265625 24.03125 -5.921875 23.375 C -6.460938 22.832031 -6.738281 22.28125 -6.75 21.71875 C -6.769531 21.164062 -6.722656 20.632812 -6.609375 20.125 C -6.265625 18.8125 -5.710938 17.648438 -4.953125 16.640625 C -4.203125 15.640625 -3.398438 14.675781 -2.546875 13.75 C 0.847656 9.957031 4.101562 6.492188 7.21875 3.359375 C 10.332031 0.234375 13.75 -2.601562 17.46875 -5.15625 C 18.351562 -5.738281 18.945312 -6.53125 19.25 -7.53125 C 19.5625 -8.539062 19.816406 -9.566406 20.015625 -10.609375 L 20.1875 -11.484375 C 20.269531 -11.984375 20.175781 -12.390625 19.90625 -12.703125 C 19.820312 -12.785156 19.679688 -12.875 19.484375 -12.96875 C 19.296875 -13.0625 19.03125 -13.109375 18.6875 -13.109375 C 18.5625 -13.109375 18.460938 -13.109375 18.390625 -13.109375 C 17.535156 -13.035156 16.679688 -12.664062 15.828125 -12 C 14.984375 -11.34375 14.28125 -10.5625 13.71875 -9.65625 C 13.15625 -8.75 12.894531 -7.867188 12.9375 -7.015625 C 12.9375 -6.554688 12.835938 -6.304688 12.640625 -6.265625 C 12.566406 -6.222656 12.492188 -6.203125 12.421875 -6.203125 C 12.222656 -6.203125 12.101562 -6.28125 12.0625 -6.4375 C 11.945312 -6.707031 11.789062 -7 11.59375 -7.3125 C 11.40625 -7.625 11.175781 -7.78125 10.90625 -7.78125 C 10.75 -7.78125 10.601562 -7.710938 10.46875 -7.578125 C 10.332031 -7.441406 10.207031 -7.296875 10.09375 -7.140625 C 9.976562 -6.941406 9.898438 -6.820312 9.859375 -6.78125 C 9.628906 -6.59375 9.390625 -6.390625 9.140625 -6.171875 C 8.890625 -5.960938 8.644531 -5.757812 8.40625 -5.5625 C 7.71875 -4.988281 7.015625 -4.410156 6.296875 -3.828125 C 5.578125 -3.242188 4.789062 -2.742188 3.9375 -2.328125 C 3.59375 -2.171875 3.253906 -2.023438 2.921875 -1.890625 C 2.597656 -1.753906 2.265625 -1.6875 1.921875 -1.6875 C 1.296875 -1.6875 0.691406 -1.914062 0.109375 -2.375 C -0.660156 -3 -1.046875 -3.648438 -1.046875 -4.328125 C -1.046875 -5.003906 -0.988281 -5.648438 -0.875 -6.265625 C -0.0195312 -9.972656 1.953125 -12.503906 5.046875 -13.859375 C 5.859375 -14.210938 6.59375 -14.390625 7.25 -14.390625 C 8.71875 -14.390625 10.171875 -13.460938 11.609375 -11.609375 C 11.753906 -11.367188 11.914062 -11.171875 12.09375 -11.015625 C 12.269531 -10.867188 12.453125 -10.796875 12.640625 -10.796875 C 12.765625 -10.796875 12.960938 -10.890625 13.234375 -11.078125 L 13.453125 -11.203125 C 14.035156 -11.617188 14.632812 -12.019531 15.25 -12.40625 C 15.875 -12.800781 16.535156 -13.148438 17.234375 -13.453125 C 17.773438 -13.722656 18.257812 -13.859375 18.6875 -13.859375 C 19.1875 -13.859375 19.628906 -13.707031 20.015625 -13.40625 C 20.515625 -13.019531 20.800781 -12.5625 20.875 -12.03125 C 20.957031 -11.507812 20.976562 -10.960938 20.9375 -10.390625 C 20.9375 -10.117188 20.914062 -9.835938 20.875 -9.546875 C 20.84375 -9.253906 20.789062 -8.953125 20.71875 -8.640625 L 20.53125 -7.484375 L 20.890625 -7.375 C 20.921875 -7.445312 21.160156 -7.566406 21.609375 -7.734375 C 22.054688 -7.910156 22.394531 -8.039062 22.625 -8.125 C 22.9375 -8.195312 23.128906 -8.253906 23.203125 -8.296875 C 23.628906 -8.492188 24.035156 -8.675781 24.421875 -8.84375 C 24.804688 -9.019531 25.191406 -9.1875 25.578125 -9.34375 C 26.472656 -9.6875 27.578125 -10.015625 28.890625 -10.328125 C 29.003906 -10.328125 29.15625 -10.34375 29.34375 -10.375 C 29.539062 -10.414062 29.738281 -10.4375 29.9375 -10.4375 Z M 9.984375 -8.296875 C 10.210938 -8.492188 10.410156 -8.71875 10.578125 -8.96875 C 10.753906 -9.21875 10.648438 -9.613281 10.265625 -10.15625 C 9.953125 -10.582031 9.570312 -10.976562 9.125 -11.34375 C 8.6875 -11.707031 8.082031 -11.890625 7.3125 -11.890625 L 7.25 -11.890625 C 3.882812 -11.003906 1.679688 -8.859375 0.640625 -5.453125 C 0.554688 -5.140625 0.492188 -4.78125 0.453125 -4.375 C 0.421875 -3.96875 0.617188 -3.59375 1.046875 -3.25 C 1.316406 -2.976562 1.625 -2.84375 1.96875 -2.84375 C 2.164062 -2.84375 2.359375 -2.878906 2.546875 -2.953125 C 2.742188 -3.035156 2.921875 -3.113281 3.078125 -3.1875 C 4.191406 -3.726562 5.1875 -4.347656 6.0625 -5.046875 C 6.9375 -5.742188 7.78125 -6.441406 8.59375 -7.140625 C 8.78125 -7.296875 8.96875 -7.457031 9.15625 -7.625 C 9.351562 -7.800781 9.53125 -7.96875 9.6875 -8.125 C 9.726562 -8.164062 9.828125 -8.222656 9.984375 -8.296875 Z M -0.875 21 C 2.84375 17.863281 6.035156 14.296875 8.703125 10.296875 C 11.367188 6.296875 13.828125 2.285156 16.078125 -1.734375 L 15.78125 -1.96875 C 13.957031 -0.882812 12.289062 0.335938 10.78125 1.703125 C 9.28125 3.078125 7.851562 4.460938 6.5 5.859375 C 6 6.359375 5.492188 6.859375 4.984375 7.359375 C 4.484375 7.867188 3.960938 8.375 3.421875 8.875 C 1.992188 10.226562 0.59375 11.640625 -0.78125 13.109375 C -2.15625 14.578125 -3.363281 16.203125 -4.40625 17.984375 L -4.703125 18.453125 C -5.046875 18.992188 -5.320312 19.582031 -5.53125 20.21875 C -5.75 20.851562 -5.53125 21.460938 -4.875 22.046875 C -4.488281 22.390625 -4.0625 22.5625 -3.59375 22.5625 C -3.132812 22.5625 -2.703125 22.414062 -2.296875 22.125 C -1.890625 21.84375 -1.507812 21.546875 -1.15625 21.234375 Z M -0.875 21 "/></g></g></g><g fill="#fffbf6" fill-opacity="1"><g transform="translate(154.942913, 132.713564)"><g><path d="M 19.84375 -8.59375 C 20.113281 -8.738281 20.421875 -8.8125 20.765625 -8.8125 C 20.804688 -8.625 20.726562 -8.441406 20.53125 -8.265625 C 20.34375 -8.085938 20.171875 -7.925781 20.015625 -7.78125 L 19.609375 -7.484375 C 18.253906 -6.441406 16.859375 -5.425781 15.421875 -4.4375 C 13.992188 -3.445312 12.457031 -2.632812 10.8125 -2 C 9.175781 -1.363281 7.351562 -1.046875 5.34375 -1.046875 L 5.109375 -1.046875 C 3.128906 -1.046875 1.597656 -1.644531 0.515625 -2.84375 C -0.441406 -3.96875 -0.769531 -5.320312 -0.46875 -6.90625 C 0.613281 -12.207031 4.054688 -15.628906 9.859375 -17.171875 C 10.171875 -17.242188 10.484375 -17.28125 10.796875 -17.28125 C 11.722656 -17.28125 12.472656 -16.878906 13.046875 -16.078125 C 13.515625 -15.453125 13.660156 -14.914062 13.484375 -14.46875 C 13.316406 -14.03125 13.054688 -13.578125 12.703125 -13.109375 C 11.160156 -11.210938 8.609375 -9.992188 5.046875 -9.453125 C 3.773438 -9.265625 2.941406 -8.765625 2.546875 -7.953125 C 2.160156 -7.140625 1.875 -6.269531 1.6875 -5.34375 L 1.625 -4.9375 C 1.507812 -4.394531 1.609375 -3.890625 1.921875 -3.421875 C 2.335938 -2.835938 3.007812 -2.410156 3.9375 -2.140625 C 4.632812 -1.953125 5.375 -1.859375 6.15625 -1.859375 C 6.769531 -1.859375 7.363281 -1.914062 7.9375 -2.03125 C 8.519531 -2.144531 9.140625 -2.300781 9.796875 -2.5 C 11.847656 -3.070312 13.898438 -4.054688 15.953125 -5.453125 C 16.835938 -6.035156 17.726562 -6.734375 18.625 -7.546875 C 18.695312 -7.578125 18.769531 -7.628906 18.84375 -7.703125 C 18.925781 -7.785156 19.007812 -7.867188 19.09375 -7.953125 C 19.207031 -8.066406 19.320312 -8.171875 19.4375 -8.265625 C 19.550781 -8.359375 19.6875 -8.46875 19.84375 -8.59375 Z M 5.75 -11.546875 L 5.34375 -11.078125 L 5.96875 -11.25 C 7.320312 -11.5625 8.472656 -11.96875 9.421875 -12.46875 C 10.367188 -12.976562 11.191406 -13.789062 11.890625 -14.90625 L 12.125 -15.375 L 11.609375 -15.203125 C 10.484375 -14.847656 9.4375 -14.410156 8.46875 -13.890625 C 7.5 -13.367188 6.59375 -12.585938 5.75 -11.546875 Z M 5.75 -11.546875 "/></g></g></g><g fill="#fffbf6" fill-opacity="1"><g transform="translate(175.304973, 132.713564)"><g><path d="M 24.765625 -50.296875 C 25.234375 -49.867188 25.414062 -49.472656 25.3125 -49.109375 C 25.21875 -48.742188 25 -48.328125 24.65625 -47.859375 C 24.1875 -47.316406 23.75 -46.734375 23.34375 -46.109375 C 22.9375 -45.492188 22.523438 -44.898438 22.109375 -44.328125 C 22.066406 -44.285156 22.035156 -44.242188 22.015625 -44.203125 C 21.992188 -44.171875 21.96875 -44.132812 21.9375 -44.09375 C 19.84375 -41.070312 17.847656 -38.035156 15.953125 -34.984375 C 11.703125 -28.054688 7.875 -20.800781 4.46875 -13.21875 C 1.0625 -5.644531 -1.664062 2.179688 -3.71875 10.265625 C -5.101562 15.835938 -5.738281 20.925781 -5.625 25.53125 C -5.625 25.71875 -5.644531 25.910156 -5.6875 26.109375 C -5.6875 26.535156 -5.664062 26.941406 -5.625 27.328125 C -5.582031 27.710938 -5.410156 28.0625 -5.109375 28.375 C -4.722656 28.832031 -4.066406 29.117188 -3.140625 29.234375 C -2.984375 29.234375 -2.847656 29.3125 -2.734375 29.46875 C -2.535156 29.625 -2.414062 29.859375 -2.375 30.171875 C -2.34375 30.515625 -2.410156 30.742188 -2.578125 30.859375 C -2.753906 30.972656 -2.957031 31.03125 -3.1875 31.03125 L -3.25 31.03125 C -5.375 31.03125 -6.75 30.023438 -7.375 28.015625 C -7.675781 26.929688 -7.816406 25.882812 -7.796875 24.875 C -7.785156 23.875 -7.71875 22.894531 -7.59375 21.9375 L -7.546875 21.34375 C -7.035156 15.539062 -5.976562 9.921875 -4.375 4.484375 C -2.769531 -0.941406 -0.847656 -6.21875 1.390625 -11.34375 C 3.628906 -16.46875 5.953125 -21.445312 8.359375 -26.28125 C 10.398438 -30.382812 12.492188 -34.4375 14.640625 -38.4375 C 16.796875 -42.4375 19.421875 -46.117188 22.515625 -49.484375 C 22.546875 -49.566406 22.640625 -49.703125 22.796875 -49.890625 C 22.953125 -50.085938 23.113281 -50.269531 23.28125 -50.4375 C 23.457031 -50.613281 23.664062 -50.703125 23.90625 -50.703125 C 24.132812 -50.703125 24.421875 -50.566406 24.765625 -50.296875 Z M 24.765625 -50.296875 "/></g></g></g><g fill="#fffbf6" fill-opacity="1"><g transform="translate(186.907346, 132.713564)"><g><path d="M 29.8125 -11.3125 C 30.007812 -11.269531 30.128906 -11.234375 30.171875 -11.203125 C 30.285156 -11.003906 30.207031 -10.75 29.9375 -10.4375 C 25.945312 -6.257812 21.09375 -2.585938 15.375 0.578125 L 14.96875 0.75 C 14.769531 0.90625 14.546875 1.039062 14.296875 1.15625 C 14.046875 1.269531 13.785156 1.328125 13.515625 1.328125 C 13.128906 1.328125 12.722656 1.15625 12.296875 0.8125 C 11.796875 0.34375 11.554688 -0.09375 11.578125 -0.5 C 11.597656 -0.90625 11.679688 -1.335938 11.828125 -1.796875 C 11.867188 -1.878906 11.910156 -1.957031 11.953125 -2.03125 C 11.992188 -2.101562 12.015625 -2.179688 12.015625 -2.265625 C 12.359375 -3.503906 12.789062 -4.691406 13.3125 -5.828125 C 13.832031 -6.972656 14.363281 -8.066406 14.90625 -9.109375 C 14.90625 -9.109375 15.03125 -9.335938 15.28125 -9.796875 C 15.539062 -10.265625 15.8125 -10.757812 16.09375 -11.28125 C 16.382812 -11.800781 16.585938 -12.160156 16.703125 -12.359375 C 16.703125 -12.398438 16.78125 -12.515625 16.9375 -12.703125 C 17.289062 -13.203125 17.59375 -13.722656 17.84375 -14.265625 C 18.09375 -14.804688 18.160156 -15.234375 18.046875 -15.546875 C 17.960938 -15.742188 17.84375 -15.878906 17.6875 -15.953125 C 17.570312 -15.992188 17.476562 -16.015625 17.40625 -16.015625 C 17.019531 -16.015625 16.59375 -15.800781 16.125 -15.375 C 15.664062 -14.945312 15.4375 -14.734375 15.4375 -14.734375 C 15.164062 -14.421875 14.894531 -14.03125 14.625 -13.5625 C 14.351562 -13.101562 14.195312 -12.585938 14.15625 -12.015625 L 14.15625 -11.78125 C 14.15625 -11.625 14.144531 -11.445312 14.125 -11.25 C 14.101562 -11.0625 14.035156 -10.96875 13.921875 -10.96875 C 13.878906 -10.96875 13.789062 -10.992188 13.65625 -11.046875 C 13.519531 -11.109375 13.335938 -11.253906 13.109375 -11.484375 L 12.9375 -11.65625 L 12.59375 -11.25 C 12.476562 -11.175781 12.367188 -11.082031 12.265625 -10.96875 C 12.171875 -10.851562 12.085938 -10.753906 12.015625 -10.671875 C 11.546875 -10.171875 11.109375 -9.675781 10.703125 -9.1875 C 10.296875 -8.707031 9.878906 -8.238281 9.453125 -7.78125 C 8.523438 -6.695312 7.578125 -5.617188 6.609375 -4.546875 C 5.640625 -3.484375 4.597656 -2.488281 3.484375 -1.5625 L 3.078125 -1.21875 C 2.722656 -0.90625 2.351562 -0.613281 1.96875 -0.34375 C 1.582031 -0.0703125 1.160156 0.0625 0.703125 0.0625 C 0.304688 0.0625 -0.0976562 -0.0703125 -0.515625 -0.34375 C -1.328125 -0.925781 -1.710938 -1.601562 -1.671875 -2.375 C -1.640625 -3.144531 -1.523438 -3.898438 -1.328125 -4.640625 L -1.28125 -4.984375 C -0.351562 -8.703125 1.3125 -11.894531 3.71875 -14.5625 C 5.375 -16.414062 7.34375 -17.34375 9.625 -17.34375 L 9.796875 -17.34375 C 10.304688 -17.34375 10.789062 -17.3125 11.25 -17.25 C 11.71875 -17.195312 12.066406 -17.015625 12.296875 -16.703125 C 12.992188 -15.703125 13.648438 -15.203125 14.265625 -15.203125 C 14.578125 -15.203125 14.847656 -15.296875 15.078125 -15.484375 C 15.316406 -15.679688 15.570312 -15.894531 15.84375 -16.125 L 16.015625 -16.296875 C 16.359375 -16.648438 16.742188 -16.921875 17.171875 -17.109375 C 17.367188 -17.191406 17.550781 -17.257812 17.71875 -17.3125 C 17.894531 -17.375 18.0625 -17.40625 18.21875 -17.40625 C 18.488281 -17.40625 18.757812 -17.304688 19.03125 -17.109375 C 19.34375 -16.835938 19.488281 -16.566406 19.46875 -16.296875 C 19.445312 -16.023438 19.359375 -15.738281 19.203125 -15.4375 C 18.546875 -14 17.890625 -12.59375 17.234375 -11.21875 C 16.578125 -9.851562 15.921875 -8.492188 15.265625 -7.140625 L 14.21875 -4.9375 C 13.976562 -4.507812 13.769531 -4.0625 13.59375 -3.59375 C 13.425781 -3.132812 13.265625 -2.691406 13.109375 -2.265625 L 12.828125 -1.390625 C 12.671875 -1.003906 12.648438 -0.710938 12.765625 -0.515625 C 12.835938 -0.398438 12.953125 -0.304688 13.109375 -0.234375 C 13.222656 -0.191406 13.359375 -0.171875 13.515625 -0.171875 C 13.898438 -0.171875 14.34375 -0.285156 14.84375 -0.515625 C 15.351562 -0.753906 15.703125 -0.929688 15.890625 -1.046875 C 17.128906 -1.898438 18.347656 -2.757812 19.546875 -3.625 C 20.742188 -4.5 21.90625 -5.359375 23.03125 -6.203125 C 23.414062 -6.472656 23.78125 -6.753906 24.125 -7.046875 C 24.476562 -7.335938 24.847656 -7.617188 25.234375 -7.890625 C 25.460938 -8.085938 25.703125 -8.289062 25.953125 -8.5 C 26.210938 -8.707031 26.476562 -8.910156 26.75 -9.109375 C 26.863281 -9.222656 26.976562 -9.328125 27.09375 -9.421875 C 27.207031 -9.523438 27.34375 -9.613281 27.5 -9.6875 C 27.695312 -9.882812 27.910156 -10.066406 28.140625 -10.234375 C 28.367188 -10.410156 28.597656 -10.597656 28.828125 -10.796875 L 29.0625 -10.90625 C 29.175781 -10.976562 29.300781 -11.0625 29.4375 -11.15625 C 29.570312 -11.257812 29.695312 -11.3125 29.8125 -11.3125 Z M 12.875 -13.515625 C 13.257812 -13.941406 13.242188 -14.445312 12.828125 -15.03125 C 12.316406 -15.6875 11.710938 -16.015625 11.015625 -16.015625 C 10.941406 -16.015625 10.867188 -16.015625 10.796875 -16.015625 C 9.828125 -15.816406 8.972656 -15.503906 8.234375 -15.078125 C 6.535156 -14.078125 5.160156 -12.820312 4.109375 -11.3125 C 3.066406 -9.800781 2.160156 -8.3125 1.390625 -6.84375 C 1.316406 -6.6875 1.226562 -6.53125 1.125 -6.375 C 1.03125 -6.226562 0.945312 -6.078125 0.875 -5.921875 C 0.632812 -5.566406 0.414062 -5.195312 0.21875 -4.8125 C 0.03125 -4.425781 -0.117188 -4 -0.234375 -3.53125 C -0.273438 -3.34375 -0.296875 -2.992188 -0.296875 -2.484375 C -0.296875 -1.984375 -0.160156 -1.617188 0.109375 -1.390625 C 0.234375 -1.234375 0.390625 -1.15625 0.578125 -1.15625 C 0.734375 -1.15625 0.925781 -1.210938 1.15625 -1.328125 C 2.820312 -2.378906 4.300781 -3.617188 5.59375 -5.046875 C 6.894531 -6.472656 8.144531 -7.925781 9.34375 -9.40625 C 9.914062 -10.09375 10.492188 -10.785156 11.078125 -11.484375 C 11.660156 -12.179688 12.257812 -12.859375 12.875 -13.515625 Z M 12.875 -13.515625 "/></g></g></g><g fill="#fffbf6" fill-opacity="1"><g transform="translate(196.555451, 202.176921)"><g><path d="M 9.984375 20.71875 C 9.742188 20.71875 9.488281 20.640625 9.21875 20.484375 C 8.644531 20.171875 8.347656 19.8125 8.328125 19.40625 C 8.304688 19 8.375 18.523438 8.53125 17.984375 L 8.640625 17.578125 C 9.335938 14.710938 10.1875 11.90625 11.1875 9.15625 C 12.195312 6.414062 13.265625 3.671875 14.390625 0.921875 C 15.242188 -1.117188 15.773438 -3.257812 15.984375 -5.5 C 16.191406 -7.75 16.207031 -10.003906 16.03125 -12.265625 C 15.863281 -14.535156 15.664062 -16.734375 15.4375 -18.859375 C 14.46875 -27.785156 10.710938 -37.007812 4.171875 -46.53125 C 3.128906 -48.070312 2.6875 -49.234375 2.84375 -50.015625 C 2.957031 -50.828125 3.769531 -51.519531 5.28125 -52.09375 C 8.175781 -53.257812 11.25 -54.195312 14.5 -54.90625 C 17.75 -55.625 21.304688 -56.273438 25.171875 -56.859375 C 26.921875 -57.128906 28.703125 -57.347656 30.515625 -57.515625 C 32.335938 -57.691406 34.253906 -57.859375 36.265625 -58.015625 C 36.921875 -58.085938 37.398438 -58.316406 37.703125 -58.703125 C 38.015625 -59.097656 38.269531 -59.523438 38.46875 -59.984375 L 38.578125 -60.21875 C 38.691406 -60.53125 38.84375 -60.847656 39.03125 -61.171875 C 39.226562 -61.503906 39.484375 -61.671875 39.796875 -61.671875 L 40.140625 -61.609375 C 40.378906 -61.492188 40.59375 -61.28125 40.78125 -60.96875 C 40.976562 -60.664062 41.113281 -60.394531 41.1875 -60.15625 C 41.226562 -60.082031 41.296875 -59.8125 41.390625 -59.34375 C 41.492188 -58.882812 41.523438 -58.613281 41.484375 -58.53125 L 41.765625 -58.1875 L 44.5 -58.125 C 46.851562 -58.125 49.25 -58.085938 51.6875 -58.015625 C 54.125 -57.941406 56.5625 -57.769531 59 -57.5 L 60.859375 -57.265625 C 64.179688 -56.910156 67.535156 -56.472656 70.921875 -55.953125 C 74.304688 -55.429688 77.71875 -54.609375 81.15625 -53.484375 C 82.28125 -53.097656 83.171875 -52.625 83.828125 -52.0625 C 84.484375 -51.507812 84.796875 -50.691406 84.765625 -49.609375 C 84.765625 -49.253906 84.65625 -48.921875 84.4375 -48.609375 C 84.226562 -48.304688 83.929688 -48.15625 83.546875 -48.15625 C 83.234375 -48.195312 83 -48.273438 82.84375 -48.390625 C 82.6875 -48.535156 82.585938 -48.734375 82.546875 -48.984375 C 82.515625 -49.242188 82.476562 -49.507812 82.4375 -49.78125 C 82.394531 -50.550781 82.125 -51.039062 81.625 -51.25 C 81.125 -51.46875 80.660156 -51.632812 80.234375 -51.75 C 80.117188 -51.75 80.007812 -51.757812 79.90625 -51.78125 C 79.8125 -51.800781 79.726562 -51.828125 79.65625 -51.859375 C 76.132812 -52.910156 72.640625 -53.6875 69.171875 -54.1875 C 65.710938 -54.6875 62.285156 -55.113281 58.890625 -55.46875 C 54.285156 -55.925781 49.566406 -56.15625 44.734375 -56.15625 C 44.035156 -56.15625 43.257812 -56.15625 42.40625 -56.15625 C 41.675781 -56.15625 41.054688 -56.039062 40.546875 -55.8125 C 40.046875 -55.582031 39.640625 -55.097656 39.328125 -54.359375 C 34.847656 -43.253906 30.738281 -32.9375 27 -23.40625 C 23.269531 -13.875 19.757812 -4.640625 16.46875 4.296875 C 16.164062 5.179688 15.867188 6.078125 15.578125 6.984375 C 15.285156 7.898438 15.003906 8.800781 14.734375 9.6875 C 14.273438 11.269531 13.773438 12.863281 13.234375 14.46875 C 12.691406 16.070312 12.03125 17.59375 11.25 19.03125 C 11.175781 19.144531 11.097656 19.316406 11.015625 19.546875 C 10.898438 19.859375 10.765625 20.128906 10.609375 20.359375 C 10.460938 20.597656 10.253906 20.71875 9.984375 20.71875 Z M 36.609375 -56.09375 L 34.578125 -55.8125 C 34.109375 -55.769531 33.679688 -55.71875 33.296875 -55.65625 C 32.910156 -55.601562 32.546875 -55.578125 32.203125 -55.578125 C 28.484375 -55.347656 24.648438 -54.863281 20.703125 -54.125 C 16.765625 -53.394531 12.492188 -52.390625 7.890625 -51.109375 C 6.847656 -50.796875 6.054688 -50.523438 5.515625 -50.296875 C 4.972656 -50.066406 4.660156 -49.738281 4.578125 -49.3125 C 4.460938 -48.925781 4.578125 -48.40625 4.921875 -47.75 C 5.273438 -47.09375 5.78125 -46.222656 6.4375 -45.140625 C 11.15625 -37.753906 14.328125 -30.226562 15.953125 -22.5625 C 16.179688 -21.363281 16.382812 -20.175781 16.5625 -19 C 16.738281 -17.820312 16.90625 -16.632812 17.0625 -15.4375 C 17.132812 -14.582031 17.226562 -13.726562 17.34375 -12.875 C 17.457031 -12.03125 17.59375 -11.160156 17.75 -10.265625 L 18.21875 -10.15625 L 22.109375 -20.078125 C 24.390625 -25.878906 26.71875 -31.765625 29.09375 -37.734375 C 31.46875 -43.710938 33.914062 -49.695312 36.4375 -55.6875 Z M 36.609375 -56.09375 "/></g></g></g><g fill="#fffbf6" fill-opacity="1"><g transform="translate(225.329128, 202.176921)"><g><path d="M 20.828125 -9.40625 C 21.140625 -9.363281 21.3125 -9.300781 21.34375 -9.21875 C 21.382812 -8.988281 21.25 -8.773438 20.9375 -8.578125 C 20.632812 -8.390625 20.285156 -8.226562 19.890625 -8.09375 C 19.503906 -7.957031 19.21875 -7.867188 19.03125 -7.828125 C 18.019531 -7.523438 17.015625 -7.375 16.015625 -7.375 C 15.085938 -7.375 14.175781 -7.46875 13.28125 -7.65625 C 12.820312 -7.769531 12.414062 -7.828125 12.0625 -7.828125 C 11.132812 -7.828125 10.457031 -7.34375 10.03125 -6.375 C 8.914062 -3.90625 7.140625 -1.878906 4.703125 -0.296875 C 4.390625 -0.0976562 4.03125 0.0820312 3.625 0.25 C 3.21875 0.425781 2.785156 0.515625 2.328125 0.515625 C 1.742188 0.515625 1.179688 0.34375 0.640625 0 C -0.128906 -0.5 -0.570312 -1.113281 -0.6875 -1.84375 C -0.8125 -2.582031 -0.851562 -3.34375 -0.8125 -4.125 C -0.582031 -8.0625 0.960938 -11.503906 3.828125 -14.453125 C 4.171875 -14.796875 4.515625 -15.140625 4.859375 -15.484375 C 5.210938 -15.835938 5.566406 -16.1875 5.921875 -16.53125 C 6.492188 -17.03125 7.128906 -17.28125 7.828125 -17.28125 C 8.296875 -17.28125 8.757812 -17.1875 9.21875 -17 C 10.300781 -16.5 11.035156 -15.515625 11.421875 -14.046875 C 11.773438 -12.804688 11.796875 -11.601562 11.484375 -10.4375 C 11.328125 -9.78125 11.382812 -9.300781 11.65625 -9 C 11.96875 -8.644531 12.53125 -8.445312 13.34375 -8.40625 C 13.84375 -8.40625 14.328125 -8.40625 14.796875 -8.40625 C 15.910156 -8.40625 16.9375 -8.484375 17.875 -8.640625 C 18.0625 -8.640625 18.25 -8.675781 18.4375 -8.75 C 18.632812 -8.832031 18.832031 -8.929688 19.03125 -9.046875 C 19.257812 -9.128906 19.5 -9.21875 19.75 -9.3125 C 20 -9.40625 20.257812 -9.453125 20.53125 -9.453125 C 20.65625 -9.453125 20.753906 -9.4375 20.828125 -9.40625 Z M 8.8125 -8.8125 C 8.8125 -8.9375 8.8125 -9.054688 8.8125 -9.171875 C 8.695312 -9.359375 8.582031 -9.507812 8.46875 -9.625 C 8.351562 -9.738281 8.238281 -9.859375 8.125 -9.984375 C 7.851562 -10.253906 7.582031 -10.515625 7.3125 -10.765625 C 7.039062 -11.015625 6.75 -11.273438 6.4375 -11.546875 C 6.363281 -11.585938 6.25 -11.703125 6.09375 -11.890625 C 5.9375 -12.085938 5.769531 -12.257812 5.59375 -12.40625 C 5.425781 -12.5625 5.242188 -12.640625 5.046875 -12.640625 C 4.816406 -12.640625 4.601562 -12.523438 4.40625 -12.296875 C 3.289062 -10.710938 2.375 -9.144531 1.65625 -7.59375 C 0.9375 -6.050781 0.554688 -4.351562 0.515625 -2.5 C 0.515625 -1.875 0.691406 -1.390625 1.046875 -1.046875 C 1.273438 -0.847656 1.566406 -0.75 1.921875 -0.75 C 2.191406 -0.75 2.476562 -0.828125 2.78125 -0.984375 C 4.445312 -1.796875 5.722656 -2.894531 6.609375 -4.28125 C 7.503906 -5.675781 8.222656 -7.015625 8.765625 -8.296875 C 8.796875 -8.367188 8.8125 -8.539062 8.8125 -8.8125 Z M 9.28125 -11.140625 C 9.394531 -11.640625 9.453125 -12.148438 9.453125 -12.671875 C 9.453125 -13.191406 9.179688 -13.707031 8.640625 -14.21875 C 8.484375 -14.40625 8.269531 -14.5 8 -14.5 C 7.726562 -14.5 7.46875 -14.382812 7.21875 -14.15625 C 6.96875 -13.925781 6.804688 -13.710938 6.734375 -13.515625 C 6.535156 -12.929688 6.609375 -12.4375 6.953125 -12.03125 C 7.304688 -11.625 7.695312 -11.25 8.125 -10.90625 C 8.238281 -10.832031 8.363281 -10.742188 8.5 -10.640625 C 8.632812 -10.546875 8.757812 -10.441406 8.875 -10.328125 L 9.109375 -10.09375 L 9.171875 -10.328125 C 9.171875 -10.484375 9.1875 -10.628906 9.21875 -10.765625 C 9.257812 -10.898438 9.28125 -11.023438 9.28125 -11.140625 Z M 9.28125 -11.140625 "/></g></g></g><g fill="#fffbf6" fill-opacity="1"><g transform="translate(245.575152, 202.176921)"><g><path d="M 25.359375 -9 C 25.585938 -8.957031 25.722656 -8.894531 25.765625 -8.8125 C 25.796875 -8.695312 25.71875 -8.5625 25.53125 -8.40625 C 24.832031 -8.019531 24.054688 -7.828125 23.203125 -7.828125 C 22.085938 -7.828125 20.945312 -8.117188 19.78125 -8.703125 C 18.625 -9.285156 17.640625 -10.039062 16.828125 -10.96875 C 16.085938 -11.78125 15.523438 -12.378906 15.140625 -12.765625 C 14.753906 -13.148438 14.347656 -13.34375 13.921875 -13.34375 C 13.648438 -13.34375 13.335938 -13.234375 12.984375 -13.015625 C 12.640625 -12.804688 12.21875 -12.53125 11.71875 -12.1875 C 9.863281 -10.863281 8.125 -9.421875 6.5 -7.859375 C 4.875 -6.296875 3.304688 -4.722656 1.796875 -3.140625 L 0.34375 -1.6875 C 0.3125 -1.601562 0.21875 -1.46875 0.0625 -1.28125 C -0.0507812 -1.125 -0.175781 -0.976562 -0.3125 -0.84375 C -0.445312 -0.707031 -0.613281 -0.640625 -0.8125 -0.640625 C -1.039062 -0.640625 -1.332031 -0.753906 -1.6875 -0.984375 C -2.113281 -1.296875 -2.304688 -1.613281 -2.265625 -1.9375 C -2.222656 -2.269531 -2.164062 -2.59375 -2.09375 -2.90625 L -1.96875 -3.140625 C -0.425781 -8.046875 1.46875 -12.375 3.71875 -16.125 L 3.828125 -16.25 C 3.941406 -16.476562 4.09375 -16.707031 4.28125 -16.9375 C 4.476562 -17.164062 4.695312 -17.28125 4.9375 -17.28125 C 5.082031 -17.28125 5.253906 -17.222656 5.453125 -17.109375 C 5.722656 -16.921875 5.894531 -16.726562 5.96875 -16.53125 C 6.050781 -16.34375 6.050781 -16.140625 5.96875 -15.921875 C 5.894531 -15.710938 5.800781 -15.507812 5.6875 -15.3125 C 5.601562 -15.082031 5.546875 -14.929688 5.515625 -14.859375 L 5.046875 -13.75 C 4.816406 -13.164062 4.570312 -12.570312 4.3125 -11.96875 C 4.0625 -11.375 3.800781 -10.785156 3.53125 -10.203125 C 3.382812 -9.816406 3.210938 -9.429688 3.015625 -9.046875 C 2.828125 -8.660156 2.65625 -8.273438 2.5 -7.890625 C 2.457031 -7.890625 2.378906 -7.734375 2.265625 -7.421875 C 2.148438 -7.117188 2.039062 -6.789062 1.9375 -6.4375 C 1.84375 -6.09375 1.835938 -5.863281 1.921875 -5.75 L 2.03125 -5.625 L 2.140625 -5.625 C 2.535156 -5.707031 2.863281 -5.863281 3.125 -6.09375 C 3.394531 -6.320312 3.648438 -6.570312 3.890625 -6.84375 C 3.960938 -6.925781 4.046875 -7.015625 4.140625 -7.109375 C 4.242188 -7.203125 4.351562 -7.304688 4.46875 -7.421875 L 6.90625 -9.453125 C 7.675781 -10.109375 8.445312 -10.753906 9.21875 -11.390625 C 10 -12.035156 10.773438 -12.664062 11.546875 -13.28125 C 12.585938 -14.0625 13.378906 -14.453125 13.921875 -14.453125 C 14.421875 -14.453125 14.910156 -14.226562 15.390625 -13.78125 C 15.878906 -13.332031 16.492188 -12.664062 17.234375 -11.78125 C 18.046875 -10.769531 18.984375 -9.984375 20.046875 -9.421875 C 21.109375 -8.867188 22.179688 -8.59375 23.265625 -8.59375 C 23.609375 -8.59375 23.957031 -8.628906 24.3125 -8.703125 C 24.425781 -8.703125 24.578125 -8.738281 24.765625 -8.8125 C 25.035156 -8.9375 25.234375 -9 25.359375 -9 Z M 25.359375 -9 "/></g></g></g><g fill="#fffbf6" fill-opacity="1"><g transform="translate(270.694132, 202.176921)"><g><path d="M 29.8125 -11.3125 C 30.007812 -11.269531 30.128906 -11.234375 30.171875 -11.203125 C 30.285156 -11.003906 30.207031 -10.75 29.9375 -10.4375 C 25.945312 -6.257812 21.09375 -2.585938 15.375 0.578125 L 14.96875 0.75 C 14.769531 0.90625 14.546875 1.039062 14.296875 1.15625 C 14.046875 1.269531 13.785156 1.328125 13.515625 1.328125 C 13.128906 1.328125 12.722656 1.15625 12.296875 0.8125 C 11.796875 0.34375 11.554688 -0.09375 11.578125 -0.5 C 11.597656 -0.90625 11.679688 -1.335938 11.828125 -1.796875 C 11.867188 -1.878906 11.910156 -1.957031 11.953125 -2.03125 C 11.992188 -2.101562 12.015625 -2.179688 12.015625 -2.265625 C 12.359375 -3.503906 12.789062 -4.691406 13.3125 -5.828125 C 13.832031 -6.972656 14.363281 -8.066406 14.90625 -9.109375 C 14.90625 -9.109375 15.03125 -9.335938 15.28125 -9.796875 C 15.539062 -10.265625 15.8125 -10.757812 16.09375 -11.28125 C 16.382812 -11.800781 16.585938 -12.160156 16.703125 -12.359375 C 16.703125 -12.398438 16.78125 -12.515625 16.9375 -12.703125 C 17.289062 -13.203125 17.59375 -13.722656 17.84375 -14.265625 C 18.09375 -14.804688 18.160156 -15.234375 18.046875 -15.546875 C 17.960938 -15.742188 17.84375 -15.878906 17.6875 -15.953125 C 17.570312 -15.992188 17.476562 -16.015625 17.40625 -16.015625 C 17.019531 -16.015625 16.59375 -15.800781 16.125 -15.375 C 15.664062 -14.945312 15.4375 -14.734375 15.4375 -14.734375 C 15.164062 -14.421875 14.894531 -14.03125 14.625 -13.5625 C 14.351562 -13.101562 14.195312 -12.585938 14.15625 -12.015625 L 14.15625 -11.78125 C 14.15625 -11.625 14.144531 -11.445312 14.125 -11.25 C 14.101562 -11.0625 14.035156 -10.96875 13.921875 -10.96875 C 13.878906 -10.96875 13.789062 -10.992188 13.65625 -11.046875 C 13.519531 -11.109375 13.335938 -11.253906 13.109375 -11.484375 L 12.9375 -11.65625 L 12.59375 -11.25 C 12.476562 -11.175781 12.367188 -11.082031 12.265625 -10.96875 C 12.171875 -10.851562 12.085938 -10.753906 12.015625 -10.671875 C 11.546875 -10.171875 11.109375 -9.675781 10.703125 -9.1875 C 10.296875 -8.707031 9.878906 -8.238281 9.453125 -7.78125 C 8.523438 -6.695312 7.578125 -5.617188 6.609375 -4.546875 C 5.640625 -3.484375 4.597656 -2.488281 3.484375 -1.5625 L 3.078125 -1.21875 C 2.722656 -0.90625 2.351562 -0.613281 1.96875 -0.34375 C 1.582031 -0.0703125 1.160156 0.0625 0.703125 0.0625 C 0.304688 0.0625 -0.0976562 -0.0703125 -0.515625 -0.34375 C -1.328125 -0.925781 -1.710938 -1.601562 -1.671875 -2.375 C -1.640625 -3.144531 -1.523438 -3.898438 -1.328125 -4.640625 L -1.28125 -4.984375 C -0.351562 -8.703125 1.3125 -11.894531 3.71875 -14.5625 C 5.375 -16.414062 7.34375 -17.34375 9.625 -17.34375 L 9.796875 -17.34375 C 10.304688 -17.34375 10.789062 -17.3125 11.25 -17.25 C 11.71875 -17.195312 12.066406 -17.015625 12.296875 -16.703125 C 12.992188 -15.703125 13.648438 -15.203125 14.265625 -15.203125 C 14.578125 -15.203125 14.847656 -15.296875 15.078125 -15.484375 C 15.316406 -15.679688 15.570312 -15.894531 15.84375 -16.125 L 16.015625 -16.296875 C 16.359375 -16.648438 16.742188 -16.921875 17.171875 -17.109375 C 17.367188 -17.191406 17.550781 -17.257812 17.71875 -17.3125 C 17.894531 -17.375 18.0625 -17.40625 18.21875 -17.40625 C 18.488281 -17.40625 18.757812 -17.304688 19.03125 -17.109375 C 19.34375 -16.835938 19.488281 -16.566406 19.46875 -16.296875 C 19.445312 -16.023438 19.359375 -15.738281 19.203125 -15.4375 C 18.546875 -14 17.890625 -12.59375 17.234375 -11.21875 C 16.578125 -9.851562 15.921875 -8.492188 15.265625 -7.140625 L 14.21875 -4.9375 C 13.976562 -4.507812 13.769531 -4.0625 13.59375 -3.59375 C 13.425781 -3.132812 13.265625 -2.691406 13.109375 -2.265625 L 12.828125 -1.390625 C 12.671875 -1.003906 12.648438 -0.710938 12.765625 -0.515625 C 12.835938 -0.398438 12.953125 -0.304688 13.109375 -0.234375 C 13.222656 -0.191406 13.359375 -0.171875 13.515625 -0.171875 C 13.898438 -0.171875 14.34375 -0.285156 14.84375 -0.515625 C 15.351562 -0.753906 15.703125 -0.929688 15.890625 -1.046875 C 17.128906 -1.898438 18.347656 -2.757812 19.546875 -3.625 C 20.742188 -4.5 21.90625 -5.359375 23.03125 -6.203125 C 23.414062 -6.472656 23.78125 -6.753906 24.125 -7.046875 C 24.476562 -7.335938 24.847656 -7.617188 25.234375 -7.890625 C 25.460938 -8.085938 25.703125 -8.289062 25.953125 -8.5 C 26.210938 -8.707031 26.476562 -8.910156 26.75 -9.109375 C 26.863281 -9.222656 26.976562 -9.328125 27.09375 -9.421875 C 27.207031 -9.523438 27.34375 -9.613281 27.5 -9.6875 C 27.695312 -9.882812 27.910156 -10.066406 28.140625 -10.234375 C 28.367188 -10.410156 28.597656 -10.597656 28.828125 -10.796875 L 29.0625 -10.90625 C 29.175781 -10.976562 29.300781 -11.0625 29.4375 -11.15625 C 29.570312 -11.257812 29.695312 -11.3125 29.8125 -11.3125 Z M 12.875 -13.515625 C 13.257812 -13.941406 13.242188 -14.445312 12.828125 -15.03125 C 12.316406 -15.6875 11.710938 -16.015625 11.015625 -16.015625 C 10.941406 -16.015625 10.867188 -16.015625 10.796875 -16.015625 C 9.828125 -15.816406 8.972656 -15.503906 8.234375 -15.078125 C 6.535156 -14.078125 5.160156 -12.820312 4.109375 -11.3125 C 3.066406 -9.800781 2.160156 -8.3125 1.390625 -6.84375 C 1.316406 -6.6875 1.226562 -6.53125 1.125 -6.375 C 1.03125 -6.226562 0.945312 -6.078125 0.875 -5.921875 C 0.632812 -5.566406 0.414062 -5.195312 0.21875 -4.8125 C 0.03125 -4.425781 -0.117188 -4 -0.234375 -3.53125 C -0.273438 -3.34375 -0.296875 -2.992188 -0.296875 -2.484375 C -0.296875 -1.984375 -0.160156 -1.617188 0.109375 -1.390625 C 0.234375 -1.234375 0.390625 -1.15625 0.578125 -1.15625 C 0.734375 -1.15625 0.925781 -1.210938 1.15625 -1.328125 C 2.820312 -2.378906 4.300781 -3.617188 5.59375 -5.046875 C 6.894531 -6.472656 8.144531 -7.925781 9.34375 -9.40625 C 9.914062 -10.09375 10.492188 -10.785156 11.078125 -11.484375 C 11.660156 -12.179688 12.257812 -12.859375 12.875 -13.515625 Z M 12.875 -13.515625 "/></g></g></g><g fill="#fffbf6" fill-opacity="1"><g transform="translate(299.525827, 202.176921)"><g><path d="M 24.765625 -50.296875 C 25.234375 -49.867188 25.414062 -49.472656 25.3125 -49.109375 C 25.21875 -48.742188 25 -48.328125 24.65625 -47.859375 C 24.1875 -47.316406 23.75 -46.734375 23.34375 -46.109375 C 22.9375 -45.492188 22.523438 -44.898438 22.109375 -44.328125 C 22.066406 -44.285156 22.035156 -44.242188 22.015625 -44.203125 C 21.992188 -44.171875 21.96875 -44.132812 21.9375 -44.09375 C 19.84375 -41.070312 17.847656 -38.035156 15.953125 -34.984375 C 11.703125 -28.054688 7.875 -20.800781 4.46875 -13.21875 C 1.0625 -5.644531 -1.664062 2.179688 -3.71875 10.265625 C -5.101562 15.835938 -5.738281 20.925781 -5.625 25.53125 C -5.625 25.71875 -5.644531 25.910156 -5.6875 26.109375 C -5.6875 26.535156 -5.664062 26.941406 -5.625 27.328125 C -5.582031 27.710938 -5.410156 28.0625 -5.109375 28.375 C -4.722656 28.832031 -4.066406 29.117188 -3.140625 29.234375 C -2.984375 29.234375 -2.847656 29.3125 -2.734375 29.46875 C -2.535156 29.625 -2.414062 29.859375 -2.375 30.171875 C -2.34375 30.515625 -2.410156 30.742188 -2.578125 30.859375 C -2.753906 30.972656 -2.957031 31.03125 -3.1875 31.03125 L -3.25 31.03125 C -5.375 31.03125 -6.75 30.023438 -7.375 28.015625 C -7.675781 26.929688 -7.816406 25.882812 -7.796875 24.875 C -7.785156 23.875 -7.71875 22.894531 -7.59375 21.9375 L -7.546875 21.34375 C -7.035156 15.539062 -5.976562 9.921875 -4.375 4.484375 C -2.769531 -0.941406 -0.847656 -6.21875 1.390625 -11.34375 C 3.628906 -16.46875 5.953125 -21.445312 8.359375 -26.28125 C 10.398438 -30.382812 12.492188 -34.4375 14.640625 -38.4375 C 16.796875 -42.4375 19.421875 -46.117188 22.515625 -49.484375 C 22.546875 -49.566406 22.640625 -49.703125 22.796875 -49.890625 C 22.953125 -50.085938 23.113281 -50.269531 23.28125 -50.4375 C 23.457031 -50.613281 23.664062 -50.703125 23.90625 -50.703125 C 24.132812 -50.703125 24.421875 -50.566406 24.765625 -50.296875 Z M 24.765625 -50.296875 "/></g></g></g></svg>