<svg xmlns="http://www.w3.org/2000/svg" xmlns:xlink="http://www.w3.org/1999/xlink" width="500" zoomAndPan="magnify" viewBox="0 0 375 374.999991" height="500" preserveAspectRatio="xMidYMid meet" version="1.0"><defs><g/></defs><path stroke-linecap="butt" transform="matrix(0.75, 0, 0, 0.75, 17.634512, 300.188858)" fill="none" stroke-linejoin="miter" d="M -0.00226587 9.99819 L 454.877972 9.99819 " stroke="#42490d" stroke-width="20" stroke-opacity="1" stroke-miterlimit="4"/><path stroke-linecap="butt" transform="matrix(0.75, 0, 0, 0.75, 17.634512, 60.874069)" fill="none" stroke-linejoin="miter" d="M -0.00226587 10.001242 L 453.002972 10.001242 " stroke="#aaab80" stroke-width="20" stroke-opacity="1" stroke-miterlimit="4"/><path stroke-linecap="butt" transform="matrix(-0.00360641, -0.749991, 0.749991, -0.00360641, 18.56039, 264.523226)" fill="none" stroke-linejoin="miter" d="M -0.00148172 9.997714 L 269.663119 9.997534 " stroke="#aaab80" stroke-width="20" stroke-opacity="1" stroke-miterlimit="4"/><g fill="#aaab80" fill-opacity="1"><g transform="translate(41.025136, 259.112411)"><g><path d="M 28.4375 -16.890625 L 29.984375 -16.890625 L 24.078125 0 L 22.328125 0 L 15.171875 -15.3125 L 8.03125 0 L 6.28125 0 L 0.359375 -16.890625 L 1.921875 -16.890625 L 7.234375 -1.6875 L 14.328125 -16.890625 L 16.015625 -16.890625 L 23.109375 -1.6875 Z M 28.4375 -16.890625 "/></g></g></g><g fill="#aaab80" fill-opacity="1"><g transform="translate(71.936592, 259.112411)"><g><path d="M 19.875 -15.59375 L 4.953125 -15.59375 L 4.953125 -8.875 L 18.84375 -8.875 L 18.84375 -7.578125 L 4.953125 -7.578125 L 4.953125 -1.296875 L 19.875 -1.296875 L 19.875 0 L 3.484375 0 L 3.484375 -16.890625 L 19.875 -16.890625 Z M 19.875 -15.59375 "/></g></g></g><g fill="#aaab80" fill-opacity="1"><g transform="translate(94.092688, 259.112411)"><g><path d="M 3.484375 0 L 3.484375 -16.890625 L 13.796875 -16.890625 C 15.859375 -16.890625 17.34375 -16.539062 18.25 -15.84375 C 19.164062 -15.15625 19.625 -14.203125 19.625 -12.984375 L 19.625 -12.328125 C 19.625 -11.359375 19.414062 -10.59375 19 -10.03125 C 18.59375 -9.476562 17.925781 -9.082031 17 -8.84375 C 18.09375 -8.59375 18.882812 -8.164062 19.375 -7.5625 C 19.875 -6.96875 20.125 -6.164062 20.125 -5.15625 L 20.125 -4.453125 C 20.125 -3.023438 19.628906 -1.925781 18.640625 -1.15625 C 17.660156 -0.382812 16.046875 0 13.796875 0 Z M 4.953125 -9.546875 L 13.796875 -9.546875 C 15.390625 -9.546875 16.503906 -9.769531 17.140625 -10.21875 C 17.785156 -10.664062 18.109375 -11.367188 18.109375 -12.328125 L 18.109375 -12.984375 C 18.109375 -13.804688 17.78125 -14.425781 17.125 -14.84375 C 16.46875 -15.269531 15.359375 -15.484375 13.796875 -15.484375 L 4.953125 -15.484375 Z M 4.953125 -1.40625 L 13.796875 -1.40625 C 15.546875 -1.40625 16.785156 -1.660156 17.515625 -2.171875 C 18.242188 -2.691406 18.609375 -3.453125 18.609375 -4.453125 L 18.609375 -5.15625 C 18.609375 -6.164062 18.242188 -6.90625 17.515625 -7.375 C 16.785156 -7.84375 15.546875 -8.078125 13.796875 -8.078125 L 4.953125 -8.078125 Z M 4.953125 -1.40625 "/></g></g></g><g fill="#aaab80" fill-opacity="1"><g transform="translate(117.149667, 259.112411)"><g/></g></g><g fill="#aaab80" fill-opacity="1"><g transform="translate(128.973888, 259.112411)"><g><path d="M 12.703125 -16.890625 C 15.367188 -16.890625 17.476562 -16.578125 19.03125 -15.953125 C 20.59375 -15.335938 21.710938 -14.445312 22.390625 -13.28125 C 23.078125 -12.125 23.421875 -10.71875 23.421875 -9.0625 L 23.421875 -7.828125 C 23.421875 -6.171875 23.078125 -4.757812 22.390625 -3.59375 C 21.710938 -2.4375 20.59375 -1.546875 19.03125 -0.921875 C 17.476562 -0.304688 15.367188 0 12.703125 0 L 3.484375 0 L 3.484375 -16.890625 Z M 21.90625 -7.828125 L 21.90625 -9.0625 C 21.90625 -10.488281 21.613281 -11.675781 21.03125 -12.625 C 20.445312 -13.570312 19.484375 -14.285156 18.140625 -14.765625 C 16.804688 -15.242188 14.992188 -15.484375 12.703125 -15.484375 L 4.953125 -15.484375 L 4.953125 -1.40625 L 12.703125 -1.40625 C 14.992188 -1.40625 16.804688 -1.644531 18.140625 -2.125 C 19.484375 -2.601562 20.445312 -3.316406 21.03125 -4.265625 C 21.613281 -5.210938 21.90625 -6.398438 21.90625 -7.828125 Z M 21.90625 -7.828125 "/></g></g></g><g fill="#aaab80" fill-opacity="1"><g transform="translate(155.212077, 259.112411)"><g><path d="M 19.875 -15.59375 L 4.953125 -15.59375 L 4.953125 -8.875 L 18.84375 -8.875 L 18.84375 -7.578125 L 4.953125 -7.578125 L 4.953125 -1.296875 L 19.875 -1.296875 L 19.875 0 L 3.484375 0 L 3.484375 -16.890625 L 19.875 -16.890625 Z M 19.875 -15.59375 "/></g></g></g><g fill="#aaab80" fill-opacity="1"><g transform="translate(177.368178, 259.112411)"><g><path d="M 18.5625 -16.890625 L 20.21875 -16.890625 L 10.921875 0 L 9.203125 0 L -0.078125 -16.890625 L 1.640625 -16.890625 L 10.109375 -1.515625 Z M 18.5625 -16.890625 "/></g></g></g><g fill="#aaab80" fill-opacity="1"><g transform="translate(198.060369, 259.112411)"><g><path d="M 19.875 -15.59375 L 4.953125 -15.59375 L 4.953125 -8.875 L 18.84375 -8.875 L 18.84375 -7.578125 L 4.953125 -7.578125 L 4.953125 -1.296875 L 19.875 -1.296875 L 19.875 0 L 3.484375 0 L 3.484375 -16.890625 L 19.875 -16.890625 Z M 19.875 -15.59375 "/></g></g></g><g fill="#aaab80" fill-opacity="1"><g transform="translate(220.216471, 259.112411)"><g><path d="M 4.921875 -16.890625 L 4.921875 -1.296875 L 19 -1.296875 L 19 0 L 3.46875 0 L 3.46875 -16.890625 Z M 4.921875 -16.890625 "/></g></g></g><g fill="#aaab80" fill-opacity="1"><g transform="translate(240.908662, 259.112411)"><g><path d="M 12.984375 0.28125 C 9.265625 0.28125 6.546875 -0.4375 4.828125 -1.875 C 3.109375 -3.3125 2.25 -5.296875 2.25 -7.828125 L 2.25 -9.0625 C 2.25 -11.601562 3.109375 -13.585938 4.828125 -15.015625 C 6.546875 -16.453125 9.265625 -17.171875 12.984375 -17.171875 C 16.703125 -17.171875 19.414062 -16.472656 21.125 -15.078125 C 22.84375 -13.679688 23.703125 -11.710938 23.703125 -9.171875 L 23.703125 -7.9375 C 23.703125 -5.40625 22.84375 -3.398438 21.125 -1.921875 C 19.414062 -0.453125 16.703125 0.28125 12.984375 0.28125 Z M 12.984375 -1.125 C 16.148438 -1.125 18.472656 -1.691406 19.953125 -2.828125 C 21.441406 -3.960938 22.1875 -5.628906 22.1875 -7.828125 L 22.1875 -9.0625 C 22.1875 -11.257812 21.441406 -12.925781 19.953125 -14.0625 C 18.472656 -15.195312 16.148438 -15.765625 12.984375 -15.765625 C 9.804688 -15.765625 7.472656 -15.195312 5.984375 -14.0625 C 4.503906 -12.925781 3.765625 -11.257812 3.765625 -9.0625 L 3.765625 -7.828125 C 3.765625 -5.628906 4.503906 -3.960938 5.984375 -2.828125 C 7.472656 -1.691406 9.804688 -1.125 12.984375 -1.125 Z M 12.984375 -1.125 "/></g></g></g><g fill="#aaab80" fill-opacity="1"><g transform="translate(267.428374, 259.112411)"><g><path d="M 12.953125 -16.890625 C 14.710938 -16.890625 16.097656 -16.707031 17.109375 -16.34375 C 18.128906 -15.976562 18.847656 -15.4375 19.265625 -14.71875 C 19.691406 -14.007812 19.90625 -13.140625 19.90625 -12.109375 L 19.90625 -11.296875 C 19.90625 -10.109375 19.691406 -9.132812 19.265625 -8.375 C 18.847656 -7.613281 18.132812 -7.046875 17.125 -6.671875 C 16.125 -6.296875 14.734375 -6.109375 12.953125 -6.109375 L 4.953125 -6.109375 L 4.953125 0 L 3.484375 0 L 3.484375 -16.890625 Z M 18.390625 -11.296875 L 18.390625 -12.109375 C 18.390625 -13.328125 17.957031 -14.191406 17.09375 -14.703125 C 16.226562 -15.222656 14.847656 -15.484375 12.953125 -15.484375 L 4.953125 -15.484375 L 4.953125 -7.515625 L 12.953125 -7.515625 C 14.898438 -7.515625 16.289062 -7.796875 17.125 -8.359375 C 17.96875 -8.921875 18.390625 -9.898438 18.390625 -11.296875 Z M 18.390625 -11.296875 "/></g></g></g><g fill="#aaab80" fill-opacity="1"><g transform="translate(289.584475, 259.112411)"><g><path d="M 19.875 -15.59375 L 4.953125 -15.59375 L 4.953125 -8.875 L 18.84375 -8.875 L 18.84375 -7.578125 L 4.953125 -7.578125 L 4.953125 -1.296875 L 19.875 -1.296875 L 19.875 0 L 3.484375 0 L 3.484375 -16.890625 L 19.875 -16.890625 Z M 19.875 -15.59375 "/></g></g></g><g fill="#aaab80" fill-opacity="1"><g transform="translate(311.740576, 259.112411)"><g><path d="M 20.53125 -1.6875 C 20.53125 -1.382812 20.539062 -1.09375 20.5625 -0.8125 C 20.59375 -0.53125 20.628906 -0.257812 20.671875 0 L 19.0625 0 C 19.019531 -0.257812 18.988281 -0.523438 18.96875 -0.796875 C 18.957031 -1.066406 18.953125 -1.328125 18.953125 -1.578125 L 18.953125 -4.390625 C 18.953125 -5.390625 18.613281 -6.113281 17.9375 -6.5625 C 17.257812 -7.007812 16.085938 -7.234375 14.421875 -7.234375 L 5.015625 -7.234375 L 5.015625 0 L 3.484375 0 L 3.484375 -16.890625 L 14.421875 -16.890625 C 16.578125 -16.890625 18.132812 -16.515625 19.09375 -15.765625 C 20.050781 -15.015625 20.53125 -13.945312 20.53125 -12.5625 L 20.53125 -11.875 C 20.53125 -10.90625 20.34375 -10.097656 19.96875 -9.453125 C 19.601562 -8.816406 19.019531 -8.320312 18.21875 -7.96875 C 19.019531 -7.644531 19.601562 -7.1875 19.96875 -6.59375 C 20.34375 -6.007812 20.53125 -5.273438 20.53125 -4.390625 Z M 5.015625 -8.703125 L 14.421875 -8.703125 C 16.085938 -8.703125 17.265625 -8.945312 17.953125 -9.4375 C 18.648438 -9.925781 19 -10.738281 19 -11.875 L 19 -12.5625 C 19 -13.550781 18.648438 -14.285156 17.953125 -14.765625 C 17.265625 -15.242188 16.085938 -15.484375 14.421875 -15.484375 L 5.015625 -15.484375 Z M 5.015625 -8.703125 "/></g></g></g><path stroke-linecap="butt" transform="matrix(-0.00520551, -0.749982, 0.749982, -0.00520551, 343.833702, 264.57347)" fill="none" stroke-linejoin="miter" d="M 0.002525 9.998032 L 269.712152 10.000209 " stroke="#aaab80" stroke-width="20" stroke-opacity="1" stroke-miterlimit="4"/><g fill="#42490d" fill-opacity="1"><g transform="translate(48.192181, 133.279916)"><g><path d="M 4.578125 20.8125 C 4.390625 20.8125 4.160156 20.71875 3.890625 20.53125 C 3.460938 20.21875 3.265625 19.882812 3.296875 19.53125 C 3.335938 19.1875 3.476562 18.785156 3.71875 18.328125 C 3.832031 18.054688 3.90625 17.863281 3.9375 17.75 C 4.632812 15.8125 5.445312 13.984375 6.375 12.265625 C 7.300781 10.546875 8.171875 9.03125 8.984375 7.71875 C 10.335938 5.46875 10.609375 2.703125 9.796875 -0.578125 C 9.097656 -3.242188 7.515625 -5.351562 5.046875 -6.90625 C 4.929688 -6.9375 4.753906 -7.03125 4.515625 -7.1875 C 4.097656 -7.414062 3.757812 -7.628906 3.5 -7.828125 C 3.25 -8.023438 3.125 -8.296875 3.125 -8.640625 C 3.125 -9.066406 3.269531 -9.347656 3.5625 -9.484375 C 3.851562 -9.617188 4.210938 -9.742188 4.640625 -9.859375 L 4.984375 -9.921875 C 9.160156 -11.035156 13.125 -11.59375 16.875 -11.59375 C 17.101562 -11.59375 17.410156 -11.59375 17.796875 -11.59375 C 18.179688 -11.59375 18.375 -11.59375 18.375 -11.59375 C 20 -11.59375 21.296875 -12.289062 22.265625 -13.6875 C 23.078125 -14.882812 23.878906 -16.082031 24.671875 -17.28125 C 25.460938 -18.476562 26.242188 -19.675781 27.015625 -20.875 C 29.453125 -24.582031 31.945312 -28.300781 34.5 -32.03125 C 37.050781 -35.757812 39.796875 -39.328125 42.734375 -42.734375 C 43.273438 -43.347656 43.832031 -43.9375 44.40625 -44.5 C 44.988281 -45.0625 45.671875 -45.5 46.453125 -45.8125 C 46.835938 -46 47.179688 -46.09375 47.484375 -46.09375 C 48.335938 -46.09375 48.976562 -45.472656 49.40625 -44.234375 C 49.789062 -43.078125 49.941406 -41.984375 49.859375 -40.953125 C 49.785156 -39.929688 49.671875 -38.921875 49.515625 -37.921875 C 48.671875 -32.859375 47.519531 -27.945312 46.0625 -23.1875 C 44.613281 -18.4375 43.132812 -13.757812 41.625 -9.15625 C 41.238281 -8.113281 40.878906 -7.078125 40.546875 -6.046875 C 40.222656 -5.023438 39.890625 -3.992188 39.546875 -2.953125 C 38.660156 -0.242188 37.742188 2.441406 36.796875 5.109375 C 35.847656 7.773438 34.890625 10.457031 33.921875 13.15625 C 33.878906 13.28125 33.820312 13.457031 33.75 13.6875 C 33.707031 13.914062 33.640625 14.144531 33.546875 14.375 C 33.453125 14.613281 33.304688 14.734375 33.109375 14.734375 C 32.953125 14.734375 32.757812 14.671875 32.53125 14.546875 C 32.332031 14.429688 32.195312 14.316406 32.125 14.203125 C 32.039062 14.046875 32.035156 13.863281 32.109375 13.65625 C 32.191406 13.445312 32.273438 13.265625 32.359375 13.109375 C 32.429688 12.835938 32.488281 12.644531 32.53125 12.53125 C 33.5 8.507812 34.609375 4.523438 35.859375 0.578125 C 37.117188 -3.359375 38.382812 -7.222656 39.65625 -11.015625 C 40.550781 -13.566406 41.421875 -16.144531 42.265625 -18.75 C 43.117188 -21.363281 43.929688 -23.984375 44.703125 -26.609375 C 44.859375 -27.117188 45.097656 -27.953125 45.421875 -29.109375 C 45.753906 -30.265625 46.101562 -31.578125 46.46875 -33.046875 C 46.84375 -34.515625 47.164062 -35.984375 47.4375 -37.453125 C 47.707031 -38.921875 47.890625 -40.207031 47.984375 -41.3125 C 48.078125 -42.414062 48.007812 -43.179688 47.78125 -43.609375 C 47.664062 -43.765625 47.53125 -43.878906 47.375 -43.953125 L 47.3125 -43.953125 L 47.03125 -44.015625 C 46.832031 -44.015625 46.65625 -43.960938 46.5 -43.859375 C 46.34375 -43.765625 46.25 -43.695312 46.21875 -43.65625 C 45.75 -43.3125 45.332031 -42.925781 44.96875 -42.5 C 44.601562 -42.070312 44.242188 -41.648438 43.890625 -41.234375 C 43.703125 -40.992188 43.507812 -40.757812 43.3125 -40.53125 C 43.125 -40.300781 42.929688 -40.066406 42.734375 -39.828125 C 41.378906 -38.328125 40.007812 -36.707031 38.625 -34.96875 C 37.269531 -33.1875 35.972656 -31.394531 34.734375 -29.59375 C 33.492188 -27.800781 32.332031 -26.09375 31.25 -24.46875 L 29.921875 -22.375 C 28.796875 -20.675781 27.660156 -18.96875 26.515625 -17.25 C 25.378906 -15.53125 24.210938 -13.835938 23.015625 -12.171875 L 22.78125 -11.828125 L 23.3125 -11.828125 C 25.4375 -11.710938 27.414062 -11.566406 29.25 -11.390625 C 31.082031 -11.222656 32.910156 -10.925781 34.734375 -10.5 C 34.804688 -10.457031 34.898438 -10.4375 35.015625 -10.4375 C 35.140625 -10.4375 35.238281 -10.4375 35.3125 -10.4375 C 35.507812 -10.394531 35.679688 -10.363281 35.828125 -10.34375 C 35.984375 -10.332031 36.117188 -10.265625 36.234375 -10.140625 C 36.359375 -10.066406 36.4375 -9.894531 36.46875 -9.625 C 36.507812 -9.238281 36.316406 -9.046875 35.890625 -9.046875 C 35.773438 -9.046875 35.648438 -9.054688 35.515625 -9.078125 C 35.378906 -9.097656 35.234375 -9.125 35.078125 -9.15625 L 34.84375 -9.21875 C 34.539062 -9.289062 34.210938 -9.359375 33.859375 -9.421875 C 33.515625 -9.484375 33.164062 -9.570312 32.8125 -9.6875 C 32.351562 -9.757812 31.878906 -9.851562 31.390625 -9.96875 C 30.910156 -10.082031 30.441406 -10.160156 29.984375 -10.203125 C 28.816406 -10.398438 27.769531 -10.5 26.84375 -10.5 C 23.132812 -10.5 20.503906 -8.953125 18.953125 -5.859375 C 18.296875 -4.546875 17.617188 -3.257812 16.921875 -2 C 16.234375 -0.738281 15.519531 0.503906 14.78125 1.734375 C 13.507812 3.941406 12.253906 6.203125 11.015625 8.515625 C 9.773438 10.835938 8.710938 13.273438 7.828125 15.828125 C 7.597656 16.441406 7.316406 17.03125 6.984375 17.59375 C 6.660156 18.15625 6.320312 18.6875 5.96875 19.1875 C 5.894531 19.300781 5.800781 19.476562 5.6875 19.71875 C 5.570312 19.988281 5.425781 20.238281 5.25 20.46875 C 5.070312 20.695312 4.847656 20.8125 4.578125 20.8125 Z M 19.359375 -10.265625 C 18.472656 -10.335938 17.601562 -10.375 16.75 -10.375 C 14.863281 -10.375 13.066406 -10.226562 11.359375 -9.9375 C 9.660156 -9.65625 8 -9.335938 6.375 -8.984375 C 6.03125 -8.910156 5.800781 -8.816406 5.6875 -8.703125 C 5.570312 -8.585938 5.515625 -8.46875 5.515625 -8.34375 C 5.515625 -8.226562 5.5625 -8.070312 5.65625 -7.875 C 5.75 -7.6875 5.96875 -7.457031 6.3125 -7.1875 C 9.289062 -4.875 11.015625 -1.6875 11.484375 2.375 L 11.53125 3.125 L 19.828125 -10.203125 Z M 19.359375 -10.265625 "/></g></g></g><g fill="#42490d" fill-opacity="1"><g transform="translate(94.861581, 133.279916)"><g><path d="M 31.953125 -9.734375 C 32.179688 -9.585938 32.316406 -9.4375 32.359375 -9.28125 C 32.390625 -9.125 32.359375 -8.976562 32.265625 -8.84375 C 32.171875 -8.707031 32.066406 -8.582031 31.953125 -8.46875 C 31.796875 -8.3125 31.695312 -8.195312 31.65625 -8.125 C 28.445312 -3.175781 23.90625 0.960938 18.03125 4.296875 C 17.414062 4.640625 16.625 4.8125 15.65625 4.8125 L 15.546875 4.8125 C 14.578125 4.8125 13.84375 4.5625 13.34375 4.0625 C 12.800781 3.5625 12.53125 2.804688 12.53125 1.796875 C 12.53125 0.910156 12.703125 0.109375 13.046875 -0.609375 C 13.390625 -1.328125 13.753906 -2.015625 14.140625 -2.671875 L 14.734375 -3.59375 C 14.847656 -3.820312 14.972656 -4.050781 15.109375 -4.28125 C 15.242188 -4.519531 15.367188 -4.753906 15.484375 -4.984375 L 15.546875 -5.15625 C 15.617188 -5.3125 15.679688 -5.503906 15.734375 -5.734375 C 15.796875 -5.972656 15.691406 -6.226562 15.421875 -6.5 C 15.109375 -6.800781 14.742188 -6.953125 14.328125 -6.953125 C 14.171875 -6.953125 13.992188 -6.914062 13.796875 -6.84375 C 13.023438 -6.6875 12.257812 -6.5 11.5 -6.28125 C 10.75 -6.070312 9.988281 -5.851562 9.21875 -5.625 C 8.25 -5.28125 7.3125 -4.875 6.40625 -4.40625 C 5.5 -3.945312 4.617188 -3.460938 3.765625 -2.953125 C 3.378906 -2.765625 3.003906 -2.5625 2.640625 -2.34375 C 2.273438 -2.132812 1.894531 -1.929688 1.5 -1.734375 L 1.28125 -1.625 C 1.125 -1.507812 0.945312 -1.410156 0.75 -1.328125 C 0.5625 -1.253906 0.367188 -1.21875 0.171875 -1.21875 C -0.171875 -1.21875 -0.535156 -1.375 -0.921875 -1.6875 C -1.347656 -2.070312 -1.5625 -2.425781 -1.5625 -2.75 C -1.5625 -3.082031 -1.523438 -3.421875 -1.453125 -3.765625 L -1.390625 -4 C -0.691406 -7.164062 0.484375 -9.988281 2.140625 -12.46875 L 2.265625 -12.640625 C 2.335938 -12.796875 2.429688 -12.941406 2.546875 -13.078125 C 2.660156 -13.210938 2.796875 -13.28125 2.953125 -13.28125 C 3.066406 -13.28125 3.1875 -13.238281 3.3125 -13.15625 C 3.582031 -13.039062 3.753906 -12.890625 3.828125 -12.703125 C 4.015625 -12.316406 4.019531 -11.859375 3.84375 -11.328125 C 3.675781 -10.804688 3.5 -10.375 3.3125 -10.03125 C 3.1875 -9.800781 3.125 -9.644531 3.125 -9.5625 L 1.109375 -4.296875 C 1.066406 -4.210938 1.023438 -4.082031 0.984375 -3.90625 C 0.941406 -3.738281 1 -3.597656 1.15625 -3.484375 C 1.3125 -3.367188 1.503906 -3.3125 1.734375 -3.3125 C 1.972656 -3.3125 2.242188 -3.359375 2.546875 -3.453125 C 2.859375 -3.546875 3.070312 -3.632812 3.1875 -3.71875 C 3.382812 -3.789062 3.554688 -3.875 3.703125 -3.96875 C 3.859375 -4.0625 4.015625 -4.171875 4.171875 -4.296875 C 4.367188 -4.441406 4.550781 -4.570312 4.71875 -4.6875 C 4.894531 -4.8125 5.082031 -4.910156 5.28125 -4.984375 C 5.894531 -5.296875 6.519531 -5.585938 7.15625 -5.859375 C 7.800781 -6.128906 8.453125 -6.398438 9.109375 -6.671875 C 10.691406 -7.328125 12.175781 -7.75 13.5625 -7.9375 C 13.800781 -7.976562 14.015625 -8 14.203125 -8 C 15.210938 -8 16.003906 -7.671875 16.578125 -7.015625 C 17.234375 -6.285156 17.410156 -5.378906 17.109375 -4.296875 C 16.953125 -3.640625 16.75 -3 16.5 -2.375 C 16.25 -1.757812 16.003906 -1.140625 15.765625 -0.515625 C 15.617188 -0.171875 15.476562 0.171875 15.34375 0.515625 C 15.207031 0.867188 15.0625 1.21875 14.90625 1.5625 L 14.84375 1.796875 C 14.726562 1.992188 14.648438 2.226562 14.609375 2.5 C 14.566406 2.769531 14.664062 3.019531 14.90625 3.25 C 15.207031 3.5625 15.554688 3.71875 15.953125 3.71875 C 16.097656 3.71875 16.25 3.695312 16.40625 3.65625 C 16.5625 3.613281 16.71875 3.570312 16.875 3.53125 C 18.6875 2.988281 20.269531 2.1875 21.625 1.125 C 22.976562 0.0625 24.195312 -1.007812 25.28125 -2.09375 C 26.164062 -2.976562 27.117188 -3.96875 28.140625 -5.0625 C 29.171875 -6.164062 30.035156 -7.414062 30.734375 -8.8125 L 30.84375 -8.921875 C 30.925781 -9.117188 31.035156 -9.320312 31.171875 -9.53125 C 31.304688 -9.75 31.46875 -9.859375 31.65625 -9.859375 C 31.738281 -9.859375 31.835938 -9.816406 31.953125 -9.734375 Z M 31.953125 -9.734375 "/></g></g></g><g fill="#42490d" fill-opacity="1"><g transform="translate(126.109825, 133.279916)"><g><path d="M 29.921875 -10.4375 C 30.109375 -10.4375 30.238281 -10.414062 30.3125 -10.375 C 30.394531 -10.34375 30.457031 -10.328125 30.5 -10.328125 C 30.539062 -10.085938 30.359375 -9.890625 29.953125 -9.734375 C 29.546875 -9.585938 29.207031 -9.472656 28.9375 -9.390625 C 28.78125 -9.347656 28.664062 -9.3125 28.59375 -9.28125 C 27.195312 -8.78125 25.867188 -8.238281 24.609375 -7.65625 C 23.359375 -7.070312 22.210938 -6.316406 21.171875 -5.390625 C 19.234375 -3.734375 17.6875 -1.566406 16.53125 1.109375 C 13.550781 8.054688 8.929688 14.722656 2.671875 21.109375 C 1.972656 21.804688 1.21875 22.460938 0.40625 23.078125 C -0.40625 23.691406 -1.390625 24.097656 -2.546875 24.296875 C -2.898438 24.335938 -3.226562 24.359375 -3.53125 24.359375 C -4.457031 24.359375 -5.253906 24.03125 -5.921875 23.375 C -6.453125 22.832031 -6.726562 22.28125 -6.75 21.71875 C -6.769531 21.15625 -6.722656 20.625 -6.609375 20.125 C -6.265625 18.8125 -5.710938 17.648438 -4.953125 16.640625 C -4.203125 15.640625 -3.398438 14.675781 -2.546875 13.75 C 0.847656 9.957031 4.101562 6.492188 7.21875 3.359375 C 10.332031 0.234375 13.742188 -2.601562 17.453125 -5.15625 C 18.335938 -5.738281 18.9375 -6.53125 19.25 -7.53125 C 19.5625 -8.539062 19.8125 -9.566406 20 -10.609375 L 20.171875 -11.484375 C 20.253906 -11.984375 20.160156 -12.390625 19.890625 -12.703125 C 19.804688 -12.773438 19.664062 -12.859375 19.46875 -12.953125 C 19.28125 -13.054688 19.015625 -13.109375 18.671875 -13.109375 C 18.554688 -13.109375 18.457031 -13.109375 18.375 -13.109375 C 17.53125 -13.023438 16.679688 -12.65625 15.828125 -12 C 14.972656 -11.34375 14.265625 -10.5625 13.703125 -9.65625 C 13.148438 -8.75 12.894531 -7.867188 12.9375 -7.015625 C 12.9375 -6.546875 12.835938 -6.296875 12.640625 -6.265625 C 12.566406 -6.222656 12.488281 -6.203125 12.40625 -6.203125 C 12.21875 -6.203125 12.101562 -6.28125 12.0625 -6.4375 C 11.945312 -6.707031 11.789062 -6.992188 11.59375 -7.296875 C 11.40625 -7.609375 11.175781 -7.765625 10.90625 -7.765625 C 10.75 -7.765625 10.601562 -7.695312 10.46875 -7.5625 C 10.332031 -7.425781 10.207031 -7.28125 10.09375 -7.125 C 9.976562 -6.9375 9.898438 -6.820312 9.859375 -6.78125 C 9.628906 -6.59375 9.382812 -6.390625 9.125 -6.171875 C 8.875 -5.960938 8.632812 -5.757812 8.40625 -5.5625 C 7.707031 -4.988281 7 -4.410156 6.28125 -3.828125 C 5.570312 -3.242188 4.789062 -2.738281 3.9375 -2.3125 C 3.59375 -2.164062 3.253906 -2.023438 2.921875 -1.890625 C 2.597656 -1.753906 2.257812 -1.6875 1.90625 -1.6875 C 1.289062 -1.6875 0.691406 -1.914062 0.109375 -2.375 C -0.660156 -3 -1.046875 -3.644531 -1.046875 -4.3125 C -1.046875 -4.988281 -0.988281 -5.640625 -0.875 -6.265625 C -0.0195312 -9.972656 1.953125 -12.503906 5.046875 -13.859375 C 5.859375 -14.203125 6.59375 -14.375 7.25 -14.375 C 8.71875 -14.375 10.164062 -13.445312 11.59375 -11.59375 C 11.75 -11.363281 11.910156 -11.171875 12.078125 -11.015625 C 12.253906 -10.859375 12.441406 -10.78125 12.640625 -10.78125 C 12.753906 -10.78125 12.945312 -10.878906 13.21875 -11.078125 L 13.453125 -11.1875 C 14.035156 -11.613281 14.632812 -12.019531 15.25 -12.40625 C 15.863281 -12.789062 16.519531 -13.140625 17.21875 -13.453125 C 17.757812 -13.722656 18.242188 -13.859375 18.671875 -13.859375 C 19.171875 -13.859375 19.613281 -13.703125 20 -13.390625 C 20.507812 -13.003906 20.800781 -12.550781 20.875 -12.03125 C 20.945312 -11.507812 20.96875 -10.957031 20.9375 -10.375 C 20.9375 -10.101562 20.914062 -9.820312 20.875 -9.53125 C 20.832031 -9.25 20.773438 -8.953125 20.703125 -8.640625 L 20.53125 -7.484375 L 20.875 -7.359375 C 20.914062 -7.441406 21.15625 -7.566406 21.59375 -7.734375 C 22.039062 -7.910156 22.378906 -8.039062 22.609375 -8.125 C 22.921875 -8.195312 23.113281 -8.253906 23.1875 -8.296875 C 23.613281 -8.484375 24.019531 -8.664062 24.40625 -8.84375 C 24.789062 -9.019531 25.179688 -9.179688 25.578125 -9.328125 C 26.460938 -9.679688 27.5625 -10.015625 28.875 -10.328125 C 28.988281 -10.328125 29.140625 -10.34375 29.328125 -10.375 C 29.523438 -10.414062 29.722656 -10.4375 29.921875 -10.4375 Z M 9.96875 -8.296875 C 10.207031 -8.484375 10.410156 -8.703125 10.578125 -8.953125 C 10.753906 -9.203125 10.648438 -9.597656 10.265625 -10.140625 C 9.953125 -10.566406 9.570312 -10.960938 9.125 -11.328125 C 8.6875 -11.703125 8.082031 -11.890625 7.3125 -11.890625 L 7.25 -11.890625 C 3.882812 -10.992188 1.679688 -8.847656 0.640625 -5.453125 C 0.554688 -5.140625 0.492188 -4.78125 0.453125 -4.375 C 0.421875 -3.96875 0.617188 -3.59375 1.046875 -3.25 C 1.316406 -2.976562 1.625 -2.84375 1.96875 -2.84375 C 2.164062 -2.84375 2.359375 -2.878906 2.546875 -2.953125 C 2.742188 -3.035156 2.921875 -3.113281 3.078125 -3.1875 C 4.191406 -3.726562 5.179688 -4.347656 6.046875 -5.046875 C 6.921875 -5.742188 7.765625 -6.4375 8.578125 -7.125 C 8.773438 -7.28125 8.96875 -7.445312 9.15625 -7.625 C 9.351562 -7.800781 9.53125 -7.96875 9.6875 -8.125 C 9.71875 -8.15625 9.8125 -8.210938 9.96875 -8.296875 Z M -0.875 20.984375 C 2.84375 17.859375 6.035156 14.296875 8.703125 10.296875 C 11.367188 6.296875 13.820312 2.285156 16.0625 -1.734375 L 15.765625 -1.96875 C 13.953125 -0.882812 12.289062 0.335938 10.78125 1.703125 C 9.28125 3.078125 7.851562 4.460938 6.5 5.859375 C 5.988281 6.359375 5.484375 6.859375 4.984375 7.359375 C 4.484375 7.867188 3.960938 8.375 3.421875 8.875 C 1.992188 10.226562 0.59375 11.640625 -0.78125 13.109375 C -2.15625 14.578125 -3.363281 16.195312 -4.40625 17.96875 L -4.703125 18.4375 C -5.046875 18.976562 -5.320312 19.566406 -5.53125 20.203125 C -5.75 20.847656 -5.53125 21.457031 -4.875 22.03125 C -4.488281 22.382812 -4.0625 22.5625 -3.59375 22.5625 C -3.132812 22.5625 -2.703125 22.414062 -2.296875 22.125 C -1.890625 21.832031 -1.507812 21.53125 -1.15625 21.21875 Z M -0.875 20.984375 "/></g></g></g><g fill="#42490d" fill-opacity="1"><g transform="translate(155.676817, 133.279916)"><g><path d="M 19.828125 -8.578125 C 20.097656 -8.734375 20.410156 -8.8125 20.765625 -8.8125 C 20.796875 -8.625 20.710938 -8.441406 20.515625 -8.265625 C 20.328125 -8.085938 20.15625 -7.921875 20 -7.765625 L 19.59375 -7.484375 C 18.238281 -6.441406 16.847656 -5.425781 15.421875 -4.4375 C 13.992188 -3.445312 12.457031 -2.632812 10.8125 -2 C 9.164062 -1.363281 7.335938 -1.046875 5.328125 -1.046875 L 5.109375 -1.046875 C 3.128906 -1.046875 1.597656 -1.644531 0.515625 -2.84375 C -0.441406 -3.957031 -0.769531 -5.3125 -0.46875 -6.90625 C 0.613281 -12.195312 4.054688 -15.613281 9.859375 -17.15625 C 10.171875 -17.238281 10.476562 -17.28125 10.78125 -17.28125 C 11.707031 -17.28125 12.460938 -16.875 13.046875 -16.0625 C 13.515625 -15.445312 13.660156 -14.914062 13.484375 -14.46875 C 13.304688 -14.019531 13.046875 -13.566406 12.703125 -13.109375 C 11.148438 -11.210938 8.597656 -9.992188 5.046875 -9.453125 C 3.765625 -9.253906 2.929688 -8.75 2.546875 -7.9375 C 2.160156 -7.125 1.875 -6.253906 1.6875 -5.328125 L 1.625 -4.921875 C 1.507812 -4.378906 1.601562 -3.878906 1.90625 -3.421875 C 2.332031 -2.835938 3.007812 -2.410156 3.9375 -2.140625 C 4.632812 -1.953125 5.367188 -1.859375 6.140625 -1.859375 C 6.765625 -1.859375 7.363281 -1.914062 7.9375 -2.03125 C 8.519531 -2.144531 9.140625 -2.300781 9.796875 -2.5 C 11.847656 -3.070312 13.898438 -4.054688 15.953125 -5.453125 C 16.835938 -6.023438 17.722656 -6.71875 18.609375 -7.53125 C 18.691406 -7.570312 18.769531 -7.628906 18.84375 -7.703125 C 18.914062 -7.785156 18.992188 -7.863281 19.078125 -7.9375 C 19.191406 -8.0625 19.304688 -8.171875 19.421875 -8.265625 C 19.535156 -8.359375 19.671875 -8.460938 19.828125 -8.578125 Z M 5.734375 -11.53125 L 5.328125 -11.078125 L 5.96875 -11.25 C 7.320312 -11.5625 8.472656 -11.96875 9.421875 -12.46875 C 10.367188 -12.96875 11.191406 -13.78125 11.890625 -14.90625 L 12.125 -15.359375 L 11.59375 -15.1875 C 10.476562 -14.84375 9.4375 -14.410156 8.46875 -13.890625 C 7.5 -13.367188 6.585938 -12.582031 5.734375 -11.53125 Z M 5.734375 -11.53125 "/></g></g></g><g fill="#42490d" fill-opacity="1"><g transform="translate(176.025911, 133.279916)"><g><path d="M 24.765625 -50.265625 C 25.222656 -49.847656 25.40625 -49.453125 25.3125 -49.078125 C 25.21875 -48.710938 24.992188 -48.300781 24.640625 -47.84375 C 24.179688 -47.300781 23.75 -46.71875 23.34375 -46.09375 C 22.9375 -45.476562 22.519531 -44.878906 22.09375 -44.296875 C 22.050781 -44.253906 22.019531 -44.210938 22 -44.171875 C 21.976562 -44.140625 21.953125 -44.101562 21.921875 -44.0625 C 19.828125 -41.050781 17.835938 -38.019531 15.953125 -34.96875 C 11.691406 -28.039062 7.859375 -20.789062 4.453125 -13.21875 C 1.054688 -5.644531 -1.664062 2.179688 -3.71875 10.265625 C -5.101562 15.828125 -5.738281 20.910156 -5.625 25.515625 C -5.625 25.703125 -5.644531 25.894531 -5.6875 26.09375 C -5.6875 26.519531 -5.664062 26.925781 -5.625 27.3125 C -5.582031 27.695312 -5.410156 28.046875 -5.109375 28.359375 C -4.710938 28.816406 -4.050781 29.101562 -3.125 29.21875 C -2.976562 29.21875 -2.84375 29.296875 -2.71875 29.453125 C -2.53125 29.609375 -2.414062 29.84375 -2.375 30.15625 C -2.332031 30.5 -2.398438 30.726562 -2.578125 30.84375 C -2.753906 30.957031 -2.957031 31.015625 -3.1875 31.015625 L -3.25 31.015625 C -5.375 31.015625 -6.742188 30.007812 -7.359375 28 C -7.671875 26.925781 -7.816406 25.882812 -7.796875 24.875 C -7.773438 23.875 -7.707031 22.890625 -7.59375 21.921875 L -7.53125 21.34375 C -7.03125 15.539062 -5.976562 9.921875 -4.375 4.484375 C -2.769531 -0.941406 -0.847656 -6.210938 1.390625 -11.328125 C 3.628906 -16.453125 5.945312 -21.429688 8.34375 -26.265625 C 10.394531 -30.359375 12.492188 -34.40625 14.640625 -38.40625 C 16.785156 -42.414062 19.40625 -46.097656 22.5 -49.453125 C 22.539062 -49.535156 22.632812 -49.671875 22.78125 -49.859375 C 22.9375 -50.054688 23.101562 -50.238281 23.28125 -50.40625 C 23.457031 -50.582031 23.660156 -50.671875 23.890625 -50.671875 C 24.117188 -50.671875 24.410156 -50.535156 24.765625 -50.265625 Z M 24.765625 -50.265625 "/></g></g></g><g fill="#42490d" fill-opacity="1"><g transform="translate(187.620896, 133.279916)"><g><path d="M 29.796875 -11.3125 C 29.992188 -11.269531 30.113281 -11.226562 30.15625 -11.1875 C 30.269531 -11 30.191406 -10.75 29.921875 -10.4375 C 25.941406 -6.257812 21.085938 -2.585938 15.359375 0.578125 L 14.953125 0.75 C 14.765625 0.90625 14.546875 1.039062 14.296875 1.15625 C 14.046875 1.269531 13.785156 1.328125 13.515625 1.328125 C 13.128906 1.328125 12.722656 1.15625 12.296875 0.8125 C 11.785156 0.34375 11.539062 -0.09375 11.5625 -0.5 C 11.582031 -0.90625 11.671875 -1.335938 11.828125 -1.796875 C 11.867188 -1.867188 11.90625 -1.941406 11.9375 -2.015625 C 11.976562 -2.097656 12 -2.179688 12 -2.265625 C 12.351562 -3.492188 12.789062 -4.675781 13.3125 -5.8125 C 13.832031 -6.957031 14.363281 -8.054688 14.90625 -9.109375 C 14.90625 -9.109375 15.03125 -9.335938 15.28125 -9.796875 C 15.53125 -10.265625 15.800781 -10.757812 16.09375 -11.28125 C 16.382812 -11.800781 16.585938 -12.15625 16.703125 -12.34375 C 16.703125 -12.382812 16.78125 -12.503906 16.9375 -12.703125 C 17.28125 -13.203125 17.578125 -13.722656 17.828125 -14.265625 C 18.078125 -14.804688 18.144531 -15.234375 18.03125 -15.546875 C 17.957031 -15.734375 17.84375 -15.867188 17.6875 -15.953125 C 17.570312 -15.984375 17.472656 -16 17.390625 -16 C 17.003906 -16 16.578125 -15.785156 16.109375 -15.359375 C 15.648438 -14.941406 15.421875 -14.734375 15.421875 -14.734375 C 15.148438 -14.421875 14.878906 -14.03125 14.609375 -13.5625 C 14.335938 -13.101562 14.179688 -12.582031 14.140625 -12 L 14.140625 -11.765625 C 14.140625 -11.609375 14.128906 -11.429688 14.109375 -11.234375 C 14.097656 -11.046875 14.035156 -10.953125 13.921875 -10.953125 C 13.878906 -10.953125 13.789062 -10.984375 13.65625 -11.046875 C 13.519531 -11.109375 13.335938 -11.253906 13.109375 -11.484375 L 12.9375 -11.65625 L 12.578125 -11.25 C 12.460938 -11.175781 12.359375 -11.078125 12.265625 -10.953125 C 12.171875 -10.835938 12.082031 -10.742188 12 -10.671875 C 11.539062 -10.171875 11.109375 -9.675781 10.703125 -9.1875 C 10.296875 -8.707031 9.878906 -8.234375 9.453125 -7.765625 C 8.523438 -6.679688 7.578125 -5.609375 6.609375 -4.546875 C 5.640625 -3.484375 4.597656 -2.488281 3.484375 -1.5625 L 3.078125 -1.21875 C 2.722656 -0.90625 2.351562 -0.613281 1.96875 -0.34375 C 1.582031 -0.0703125 1.160156 0.0625 0.703125 0.0625 C 0.304688 0.0625 -0.0976562 -0.0703125 -0.515625 -0.34375 C -1.328125 -0.925781 -1.710938 -1.601562 -1.671875 -2.375 C -1.640625 -3.144531 -1.523438 -3.898438 -1.328125 -4.640625 L -1.28125 -4.984375 C -0.351562 -8.691406 1.3125 -11.878906 3.71875 -14.546875 C 5.375 -16.410156 7.34375 -17.34375 9.625 -17.34375 L 9.796875 -17.34375 C 10.296875 -17.34375 10.773438 -17.3125 11.234375 -17.25 C 11.703125 -17.1875 12.054688 -17.003906 12.296875 -16.703125 C 12.992188 -15.691406 13.648438 -15.1875 14.265625 -15.1875 C 14.578125 -15.1875 14.847656 -15.28125 15.078125 -15.46875 C 15.304688 -15.664062 15.554688 -15.882812 15.828125 -16.125 L 16 -16.296875 C 16.351562 -16.640625 16.738281 -16.910156 17.15625 -17.109375 C 17.351562 -17.179688 17.535156 -17.242188 17.703125 -17.296875 C 17.878906 -17.359375 18.046875 -17.390625 18.203125 -17.390625 C 18.472656 -17.390625 18.742188 -17.296875 19.015625 -17.109375 C 19.328125 -16.835938 19.472656 -16.566406 19.453125 -16.296875 C 19.429688 -16.023438 19.34375 -15.734375 19.1875 -15.421875 C 18.53125 -13.992188 17.875 -12.59375 17.21875 -11.21875 C 16.5625 -9.84375 15.90625 -8.476562 15.25 -7.125 L 14.203125 -4.921875 C 13.972656 -4.503906 13.769531 -4.0625 13.59375 -3.59375 C 13.425781 -3.132812 13.265625 -2.691406 13.109375 -2.265625 L 12.8125 -1.390625 C 12.65625 -1.003906 12.632812 -0.710938 12.75 -0.515625 C 12.832031 -0.398438 12.953125 -0.304688 13.109375 -0.234375 C 13.222656 -0.191406 13.359375 -0.171875 13.515625 -0.171875 C 13.898438 -0.171875 14.34375 -0.285156 14.84375 -0.515625 C 15.34375 -0.753906 15.691406 -0.929688 15.890625 -1.046875 C 17.128906 -1.890625 18.347656 -2.742188 19.546875 -3.609375 C 20.742188 -4.484375 21.898438 -5.347656 23.015625 -6.203125 C 23.398438 -6.472656 23.765625 -6.753906 24.109375 -7.046875 C 24.460938 -7.335938 24.832031 -7.617188 25.21875 -7.890625 C 25.457031 -8.078125 25.703125 -8.273438 25.953125 -8.484375 C 26.203125 -8.703125 26.460938 -8.910156 26.734375 -9.109375 C 26.847656 -9.222656 26.960938 -9.328125 27.078125 -9.421875 C 27.191406 -9.515625 27.328125 -9.601562 27.484375 -9.6875 C 27.679688 -9.875 27.894531 -10.054688 28.125 -10.234375 C 28.351562 -10.410156 28.582031 -10.59375 28.8125 -10.78125 L 29.046875 -10.90625 C 29.160156 -10.976562 29.285156 -11.0625 29.421875 -11.15625 C 29.554688 -11.257812 29.679688 -11.3125 29.796875 -11.3125 Z M 12.875 -13.515625 C 13.257812 -13.929688 13.238281 -14.429688 12.8125 -15.015625 C 12.3125 -15.671875 11.710938 -16 11.015625 -16 C 10.941406 -16 10.863281 -16 10.78125 -16 C 9.8125 -15.8125 8.960938 -15.503906 8.234375 -15.078125 C 6.535156 -14.066406 5.160156 -12.804688 4.109375 -11.296875 C 3.066406 -9.796875 2.160156 -8.3125 1.390625 -6.84375 C 1.316406 -6.6875 1.226562 -6.53125 1.125 -6.375 C 1.03125 -6.21875 0.945312 -6.066406 0.875 -5.921875 C 0.632812 -5.566406 0.414062 -5.195312 0.21875 -4.8125 C 0.03125 -4.425781 -0.117188 -4 -0.234375 -3.53125 C -0.273438 -3.34375 -0.296875 -2.992188 -0.296875 -2.484375 C -0.296875 -1.984375 -0.160156 -1.617188 0.109375 -1.390625 C 0.234375 -1.234375 0.390625 -1.15625 0.578125 -1.15625 C 0.734375 -1.15625 0.925781 -1.210938 1.15625 -1.328125 C 2.820312 -2.378906 4.300781 -3.617188 5.59375 -5.046875 C 6.882812 -6.472656 8.128906 -7.921875 9.328125 -9.390625 C 9.910156 -10.085938 10.488281 -10.785156 11.0625 -11.484375 C 11.644531 -12.179688 12.25 -12.859375 12.875 -13.515625 Z M 12.875 -13.515625 "/></g></g></g><g fill="#42490d" fill-opacity="1"><g transform="translate(197.262882, 202.699009)"><g><path d="M 9.96875 20.703125 C 9.738281 20.703125 9.488281 20.625 9.21875 20.46875 C 8.632812 20.15625 8.332031 19.796875 8.3125 19.390625 C 8.300781 18.984375 8.375 18.507812 8.53125 17.96875 L 8.640625 17.5625 C 9.335938 14.707031 10.1875 11.90625 11.1875 9.15625 C 12.195312 6.414062 13.257812 3.671875 14.375 0.921875 C 15.226562 -1.117188 15.757812 -3.257812 15.96875 -5.5 C 16.1875 -7.75 16.207031 -10.003906 16.03125 -12.265625 C 15.851562 -14.523438 15.648438 -16.71875 15.421875 -18.84375 C 14.453125 -27.769531 10.703125 -36.988281 4.171875 -46.5 C 3.128906 -48.050781 2.6875 -49.210938 2.84375 -49.984375 C 2.957031 -50.796875 3.769531 -51.488281 5.28125 -52.0625 C 8.175781 -53.226562 11.242188 -54.164062 14.484375 -54.875 C 17.734375 -55.59375 21.296875 -56.242188 25.171875 -56.828125 C 26.910156 -57.097656 28.6875 -57.316406 30.5 -57.484375 C 32.3125 -57.660156 34.222656 -57.828125 36.234375 -57.984375 C 36.890625 -58.054688 37.375 -58.285156 37.6875 -58.671875 C 38 -59.066406 38.25 -59.492188 38.4375 -59.953125 L 38.5625 -60.1875 C 38.675781 -60.5 38.828125 -60.816406 39.015625 -61.140625 C 39.210938 -61.472656 39.46875 -61.640625 39.78125 -61.640625 L 40.125 -61.578125 C 40.351562 -61.460938 40.5625 -61.25 40.75 -60.9375 C 40.945312 -60.632812 41.085938 -60.363281 41.171875 -60.125 C 41.210938 -60.050781 41.28125 -59.78125 41.375 -59.3125 C 41.46875 -58.851562 41.492188 -58.582031 41.453125 -58.5 L 41.75 -58.15625 L 44.46875 -58.09375 C 46.832031 -58.09375 49.226562 -58.054688 51.65625 -57.984375 C 54.09375 -57.910156 56.53125 -57.738281 58.96875 -57.46875 L 60.828125 -57.234375 C 64.148438 -56.878906 67.5 -56.441406 70.875 -55.921875 C 74.257812 -55.398438 77.675781 -54.582031 81.125 -53.46875 C 82.238281 -53.070312 83.125 -52.59375 83.78125 -52.03125 C 84.4375 -51.476562 84.75 -50.660156 84.71875 -49.578125 C 84.71875 -49.234375 84.609375 -48.90625 84.390625 -48.59375 C 84.179688 -48.28125 83.882812 -48.125 83.5 -48.125 C 83.1875 -48.164062 82.953125 -48.242188 82.796875 -48.359375 C 82.640625 -48.515625 82.539062 -48.71875 82.5 -48.96875 C 82.46875 -49.21875 82.429688 -49.476562 82.390625 -49.75 C 82.359375 -50.519531 82.085938 -51.007812 81.578125 -51.21875 C 81.078125 -51.4375 80.613281 -51.601562 80.1875 -51.71875 C 80.070312 -51.71875 79.96875 -51.726562 79.875 -51.75 C 79.78125 -51.769531 79.691406 -51.800781 79.609375 -51.84375 C 76.097656 -52.882812 72.609375 -53.65625 69.140625 -54.15625 C 65.679688 -54.65625 62.253906 -55.082031 58.859375 -55.4375 C 54.253906 -55.894531 49.535156 -56.125 44.703125 -56.125 C 44.003906 -56.125 43.234375 -56.125 42.390625 -56.125 C 41.648438 -56.125 41.03125 -56.007812 40.53125 -55.78125 C 40.03125 -55.550781 39.625 -55.066406 39.3125 -54.328125 C 34.832031 -43.234375 30.722656 -32.921875 26.984375 -23.390625 C 23.253906 -13.867188 19.75 -4.640625 16.46875 4.296875 C 16.15625 5.179688 15.851562 6.078125 15.5625 6.984375 C 15.28125 7.890625 15.003906 8.789062 14.734375 9.6875 C 14.265625 11.269531 13.757812 12.863281 13.21875 14.46875 C 12.675781 16.070312 12.019531 17.585938 11.25 19.015625 C 11.175781 19.128906 11.097656 19.304688 11.015625 19.546875 C 10.898438 19.847656 10.765625 20.113281 10.609375 20.34375 C 10.453125 20.582031 10.238281 20.703125 9.96875 20.703125 Z M 36.59375 -56.078125 L 34.5625 -55.78125 C 34.09375 -55.738281 33.664062 -55.6875 33.28125 -55.625 C 32.894531 -55.570312 32.53125 -55.546875 32.1875 -55.546875 C 28.46875 -55.316406 24.632812 -54.832031 20.6875 -54.09375 C 16.75 -53.363281 12.484375 -52.359375 7.890625 -51.078125 C 6.835938 -50.773438 6.039062 -50.503906 5.5 -50.265625 C 4.96875 -50.035156 4.660156 -49.707031 4.578125 -49.28125 C 4.460938 -48.894531 4.578125 -48.375 4.921875 -47.71875 C 5.273438 -47.0625 5.78125 -46.191406 6.4375 -45.109375 C 11.15625 -37.722656 14.328125 -30.207031 15.953125 -22.5625 C 16.179688 -21.363281 16.378906 -20.171875 16.546875 -18.984375 C 16.722656 -17.804688 16.890625 -16.617188 17.046875 -15.421875 C 17.117188 -14.566406 17.210938 -13.710938 17.328125 -12.859375 C 17.453125 -12.015625 17.59375 -11.148438 17.75 -10.265625 L 18.203125 -10.140625 L 22.09375 -20.0625 C 24.375 -25.863281 26.703125 -31.75 29.078125 -37.71875 C 31.453125 -43.6875 33.898438 -49.671875 36.421875 -55.671875 Z M 36.59375 -56.078125 "/></g></g></g><g fill="#42490d" fill-opacity="1"><g transform="translate(226.018238, 202.699009)"><g><path d="M 20.8125 -9.390625 C 21.125 -9.347656 21.300781 -9.289062 21.34375 -9.21875 C 21.375 -8.988281 21.234375 -8.773438 20.921875 -8.578125 C 20.617188 -8.390625 20.273438 -8.226562 19.890625 -8.09375 C 19.503906 -7.957031 19.210938 -7.867188 19.015625 -7.828125 C 18.015625 -7.515625 17.007812 -7.359375 16 -7.359375 C 15.070312 -7.359375 14.164062 -7.457031 13.28125 -7.65625 C 12.8125 -7.769531 12.40625 -7.828125 12.0625 -7.828125 C 11.132812 -7.828125 10.457031 -7.34375 10.03125 -6.375 C 8.90625 -3.90625 7.128906 -1.878906 4.703125 -0.296875 C 4.390625 -0.0976562 4.03125 0.0820312 3.625 0.25 C 3.21875 0.425781 2.78125 0.515625 2.3125 0.515625 C 1.738281 0.515625 1.179688 0.34375 0.640625 0 C -0.128906 -0.5 -0.570312 -1.113281 -0.6875 -1.84375 C -0.8125 -2.582031 -0.851562 -3.335938 -0.8125 -4.109375 C -0.582031 -8.054688 0.960938 -11.5 3.828125 -14.4375 C 4.171875 -14.78125 4.515625 -15.125 4.859375 -15.46875 C 5.210938 -15.820312 5.566406 -16.175781 5.921875 -16.53125 C 6.492188 -17.03125 7.128906 -17.28125 7.828125 -17.28125 C 8.296875 -17.28125 8.757812 -17.179688 9.21875 -16.984375 C 10.300781 -16.484375 11.035156 -15.5 11.421875 -14.03125 C 11.765625 -12.789062 11.785156 -11.59375 11.484375 -10.4375 C 11.328125 -9.78125 11.382812 -9.296875 11.65625 -8.984375 C 11.96875 -8.640625 12.53125 -8.445312 13.34375 -8.40625 C 13.84375 -8.40625 14.320312 -8.40625 14.78125 -8.40625 C 15.90625 -8.40625 16.929688 -8.484375 17.859375 -8.640625 C 18.054688 -8.640625 18.25 -8.675781 18.4375 -8.75 C 18.632812 -8.832031 18.828125 -8.929688 19.015625 -9.046875 C 19.242188 -9.117188 19.484375 -9.203125 19.734375 -9.296875 C 19.992188 -9.398438 20.257812 -9.453125 20.53125 -9.453125 C 20.644531 -9.453125 20.738281 -9.429688 20.8125 -9.390625 Z M 8.8125 -8.8125 C 8.8125 -8.925781 8.8125 -9.039062 8.8125 -9.15625 C 8.695312 -9.351562 8.582031 -9.507812 8.46875 -9.625 C 8.351562 -9.738281 8.238281 -9.851562 8.125 -9.96875 C 7.851562 -10.238281 7.582031 -10.5 7.3125 -10.75 C 7.039062 -11.007812 6.75 -11.269531 6.4375 -11.53125 C 6.351562 -11.570312 6.238281 -11.691406 6.09375 -11.890625 C 5.9375 -12.078125 5.769531 -12.25 5.59375 -12.40625 C 5.414062 -12.5625 5.234375 -12.640625 5.046875 -12.640625 C 4.816406 -12.640625 4.601562 -12.523438 4.40625 -12.296875 C 3.28125 -10.710938 2.359375 -9.144531 1.640625 -7.59375 C 0.929688 -6.050781 0.554688 -4.351562 0.515625 -2.5 C 0.515625 -1.875 0.691406 -1.390625 1.046875 -1.046875 C 1.273438 -0.847656 1.5625 -0.75 1.90625 -0.75 C 2.175781 -0.75 2.46875 -0.828125 2.78125 -0.984375 C 4.445312 -1.796875 5.722656 -2.894531 6.609375 -4.28125 C 7.492188 -5.675781 8.207031 -7.015625 8.75 -8.296875 C 8.789062 -8.367188 8.8125 -8.539062 8.8125 -8.8125 Z M 9.28125 -11.140625 C 9.394531 -11.640625 9.453125 -12.148438 9.453125 -12.671875 C 9.453125 -13.191406 9.179688 -13.703125 8.640625 -14.203125 C 8.484375 -14.398438 8.269531 -14.5 8 -14.5 C 7.726562 -14.5 7.46875 -14.378906 7.21875 -14.140625 C 6.96875 -13.910156 6.800781 -13.703125 6.71875 -13.515625 C 6.53125 -12.929688 6.609375 -12.4375 6.953125 -12.03125 C 7.304688 -11.625 7.695312 -11.25 8.125 -10.90625 C 8.238281 -10.820312 8.363281 -10.734375 8.5 -10.640625 C 8.632812 -10.546875 8.757812 -10.441406 8.875 -10.328125 L 9.109375 -10.09375 L 9.15625 -10.328125 C 9.15625 -10.472656 9.175781 -10.613281 9.21875 -10.75 C 9.257812 -10.882812 9.28125 -11.015625 9.28125 -11.140625 Z M 9.28125 -11.140625 "/></g></g></g><g fill="#42490d" fill-opacity="1"><g transform="translate(246.25137, 202.699009)"><g><path d="M 25.34375 -8.984375 C 25.570312 -8.941406 25.707031 -8.882812 25.75 -8.8125 C 25.78125 -8.695312 25.703125 -8.5625 25.515625 -8.40625 C 24.816406 -8.019531 24.039062 -7.828125 23.1875 -7.828125 C 22.070312 -7.828125 20.929688 -8.113281 19.765625 -8.6875 C 18.609375 -9.269531 17.625 -10.023438 16.8125 -10.953125 C 16.082031 -11.765625 15.519531 -12.363281 15.125 -12.75 C 14.738281 -13.144531 14.335938 -13.34375 13.921875 -13.34375 C 13.648438 -13.34375 13.335938 -13.234375 12.984375 -13.015625 C 12.640625 -12.804688 12.21875 -12.523438 11.71875 -12.171875 C 9.851562 -10.859375 8.109375 -9.421875 6.484375 -7.859375 C 4.867188 -6.296875 3.304688 -4.71875 1.796875 -3.125 L 0.34375 -1.6875 C 0.3125 -1.601562 0.21875 -1.46875 0.0625 -1.28125 C -0.0507812 -1.125 -0.175781 -0.976562 -0.3125 -0.84375 C -0.445312 -0.707031 -0.613281 -0.640625 -0.8125 -0.640625 C -1.039062 -0.640625 -1.332031 -0.753906 -1.6875 -0.984375 C -2.101562 -1.296875 -2.289062 -1.613281 -2.25 -1.9375 C -2.21875 -2.269531 -2.164062 -2.59375 -2.09375 -2.90625 L -1.96875 -3.125 C -0.425781 -8.039062 1.46875 -12.375 3.71875 -16.125 L 3.828125 -16.234375 C 3.941406 -16.460938 4.09375 -16.691406 4.28125 -16.921875 C 4.476562 -17.160156 4.691406 -17.28125 4.921875 -17.28125 C 5.078125 -17.28125 5.253906 -17.222656 5.453125 -17.109375 C 5.722656 -16.910156 5.894531 -16.71875 5.96875 -16.53125 C 6.050781 -16.332031 6.050781 -16.125 5.96875 -15.90625 C 5.894531 -15.695312 5.800781 -15.5 5.6875 -15.3125 C 5.601562 -15.070312 5.546875 -14.914062 5.515625 -14.84375 L 5.046875 -13.75 C 4.816406 -13.164062 4.570312 -12.570312 4.3125 -11.96875 C 4.0625 -11.375 3.800781 -10.785156 3.53125 -10.203125 C 3.382812 -9.816406 3.210938 -9.429688 3.015625 -9.046875 C 2.816406 -8.660156 2.644531 -8.273438 2.5 -7.890625 C 2.457031 -7.890625 2.378906 -7.734375 2.265625 -7.421875 C 2.148438 -7.109375 2.039062 -6.78125 1.9375 -6.4375 C 1.84375 -6.09375 1.832031 -5.859375 1.90625 -5.734375 L 2.03125 -5.625 L 2.140625 -5.625 C 2.523438 -5.695312 2.851562 -5.847656 3.125 -6.078125 C 3.394531 -6.316406 3.648438 -6.570312 3.890625 -6.84375 C 3.960938 -6.914062 4.046875 -7 4.140625 -7.09375 C 4.242188 -7.195312 4.351562 -7.304688 4.46875 -7.421875 L 6.90625 -9.453125 C 7.675781 -10.109375 8.445312 -10.753906 9.21875 -11.390625 C 9.988281 -12.023438 10.757812 -12.65625 11.53125 -13.28125 C 12.582031 -14.050781 13.378906 -14.4375 13.921875 -14.4375 C 14.421875 -14.4375 14.910156 -14.210938 15.390625 -13.765625 C 15.878906 -13.328125 16.488281 -12.660156 17.21875 -11.765625 C 18.03125 -10.765625 18.96875 -9.984375 20.03125 -9.421875 C 21.09375 -8.859375 22.164062 -8.578125 23.25 -8.578125 C 23.601562 -8.578125 23.953125 -8.617188 24.296875 -8.703125 C 24.410156 -8.703125 24.566406 -8.738281 24.765625 -8.8125 C 25.035156 -8.925781 25.226562 -8.984375 25.34375 -8.984375 Z M 25.34375 -8.984375 "/></g></g></g><g fill="#42490d" fill-opacity="1"><g transform="translate(271.354355, 202.699009)"><g><path d="M 29.796875 -11.3125 C 29.992188 -11.269531 30.113281 -11.226562 30.15625 -11.1875 C 30.269531 -11 30.191406 -10.75 29.921875 -10.4375 C 25.941406 -6.257812 21.085938 -2.585938 15.359375 0.578125 L 14.953125 0.75 C 14.765625 0.90625 14.546875 1.039062 14.296875 1.15625 C 14.046875 1.269531 13.785156 1.328125 13.515625 1.328125 C 13.128906 1.328125 12.722656 1.15625 12.296875 0.8125 C 11.785156 0.34375 11.539062 -0.09375 11.5625 -0.5 C 11.582031 -0.90625 11.671875 -1.335938 11.828125 -1.796875 C 11.867188 -1.867188 11.90625 -1.941406 11.9375 -2.015625 C 11.976562 -2.097656 12 -2.179688 12 -2.265625 C 12.351562 -3.492188 12.789062 -4.675781 13.3125 -5.8125 C 13.832031 -6.957031 14.363281 -8.054688 14.90625 -9.109375 C 14.90625 -9.109375 15.03125 -9.335938 15.28125 -9.796875 C 15.53125 -10.265625 15.800781 -10.757812 16.09375 -11.28125 C 16.382812 -11.800781 16.585938 -12.15625 16.703125 -12.34375 C 16.703125 -12.382812 16.78125 -12.503906 16.9375 -12.703125 C 17.28125 -13.203125 17.578125 -13.722656 17.828125 -14.265625 C 18.078125 -14.804688 18.144531 -15.234375 18.03125 -15.546875 C 17.957031 -15.734375 17.84375 -15.867188 17.6875 -15.953125 C 17.570312 -15.984375 17.472656 -16 17.390625 -16 C 17.003906 -16 16.578125 -15.785156 16.109375 -15.359375 C 15.648438 -14.941406 15.421875 -14.734375 15.421875 -14.734375 C 15.148438 -14.421875 14.878906 -14.03125 14.609375 -13.5625 C 14.335938 -13.101562 14.179688 -12.582031 14.140625 -12 L 14.140625 -11.765625 C 14.140625 -11.609375 14.128906 -11.429688 14.109375 -11.234375 C 14.097656 -11.046875 14.035156 -10.953125 13.921875 -10.953125 C 13.878906 -10.953125 13.789062 -10.984375 13.65625 -11.046875 C 13.519531 -11.109375 13.335938 -11.253906 13.109375 -11.484375 L 12.9375 -11.65625 L 12.578125 -11.25 C 12.460938 -11.175781 12.359375 -11.078125 12.265625 -10.953125 C 12.171875 -10.835938 12.082031 -10.742188 12 -10.671875 C 11.539062 -10.171875 11.109375 -9.675781 10.703125 -9.1875 C 10.296875 -8.707031 9.878906 -8.234375 9.453125 -7.765625 C 8.523438 -6.679688 7.578125 -5.609375 6.609375 -4.546875 C 5.640625 -3.484375 4.597656 -2.488281 3.484375 -1.5625 L 3.078125 -1.21875 C 2.722656 -0.90625 2.351562 -0.613281 1.96875 -0.34375 C 1.582031 -0.0703125 1.160156 0.0625 0.703125 0.0625 C 0.304688 0.0625 -0.0976562 -0.0703125 -0.515625 -0.34375 C -1.328125 -0.925781 -1.710938 -1.601562 -1.671875 -2.375 C -1.640625 -3.144531 -1.523438 -3.898438 -1.328125 -4.640625 L -1.28125 -4.984375 C -0.351562 -8.691406 1.3125 -11.878906 3.71875 -14.546875 C 5.375 -16.410156 7.34375 -17.34375 9.625 -17.34375 L 9.796875 -17.34375 C 10.296875 -17.34375 10.773438 -17.3125 11.234375 -17.25 C 11.703125 -17.1875 12.054688 -17.003906 12.296875 -16.703125 C 12.992188 -15.691406 13.648438 -15.1875 14.265625 -15.1875 C 14.578125 -15.1875 14.847656 -15.28125 15.078125 -15.46875 C 15.304688 -15.664062 15.554688 -15.882812 15.828125 -16.125 L 16 -16.296875 C 16.351562 -16.640625 16.738281 -16.910156 17.15625 -17.109375 C 17.351562 -17.179688 17.535156 -17.242188 17.703125 -17.296875 C 17.878906 -17.359375 18.046875 -17.390625 18.203125 -17.390625 C 18.472656 -17.390625 18.742188 -17.296875 19.015625 -17.109375 C 19.328125 -16.835938 19.472656 -16.566406 19.453125 -16.296875 C 19.429688 -16.023438 19.34375 -15.734375 19.1875 -15.421875 C 18.53125 -13.992188 17.875 -12.59375 17.21875 -11.21875 C 16.5625 -9.84375 15.90625 -8.476562 15.25 -7.125 L 14.203125 -4.921875 C 13.972656 -4.503906 13.769531 -4.0625 13.59375 -3.59375 C 13.425781 -3.132812 13.265625 -2.691406 13.109375 -2.265625 L 12.8125 -1.390625 C 12.65625 -1.003906 12.632812 -0.710938 12.75 -0.515625 C 12.832031 -0.398438 12.953125 -0.304688 13.109375 -0.234375 C 13.222656 -0.191406 13.359375 -0.171875 13.515625 -0.171875 C 13.898438 -0.171875 14.34375 -0.285156 14.84375 -0.515625 C 15.34375 -0.753906 15.691406 -0.929688 15.890625 -1.046875 C 17.128906 -1.890625 18.347656 -2.742188 19.546875 -3.609375 C 20.742188 -4.484375 21.898438 -5.347656 23.015625 -6.203125 C 23.398438 -6.472656 23.765625 -6.753906 24.109375 -7.046875 C 24.460938 -7.335938 24.832031 -7.617188 25.21875 -7.890625 C 25.457031 -8.078125 25.703125 -8.273438 25.953125 -8.484375 C 26.203125 -8.703125 26.460938 -8.910156 26.734375 -9.109375 C 26.847656 -9.222656 26.960938 -9.328125 27.078125 -9.421875 C 27.191406 -9.515625 27.328125 -9.601562 27.484375 -9.6875 C 27.679688 -9.875 27.894531 -10.054688 28.125 -10.234375 C 28.351562 -10.410156 28.582031 -10.59375 28.8125 -10.78125 L 29.046875 -10.90625 C 29.160156 -10.976562 29.285156 -11.0625 29.421875 -11.15625 C 29.554688 -11.257812 29.679688 -11.3125 29.796875 -11.3125 Z M 12.875 -13.515625 C 13.257812 -13.929688 13.238281 -14.429688 12.8125 -15.015625 C 12.3125 -15.671875 11.710938 -16 11.015625 -16 C 10.941406 -16 10.863281 -16 10.78125 -16 C 9.8125 -15.8125 8.960938 -15.503906 8.234375 -15.078125 C 6.535156 -14.066406 5.160156 -12.804688 4.109375 -11.296875 C 3.066406 -9.796875 2.160156 -8.3125 1.390625 -6.84375 C 1.316406 -6.6875 1.226562 -6.53125 1.125 -6.375 C 1.03125 -6.21875 0.945312 -6.066406 0.875 -5.921875 C 0.632812 -5.566406 0.414062 -5.195312 0.21875 -4.8125 C 0.03125 -4.425781 -0.117188 -4 -0.234375 -3.53125 C -0.273438 -3.34375 -0.296875 -2.992188 -0.296875 -2.484375 C -0.296875 -1.984375 -0.160156 -1.617188 0.109375 -1.390625 C 0.234375 -1.234375 0.390625 -1.15625 0.578125 -1.15625 C 0.734375 -1.15625 0.925781 -1.210938 1.15625 -1.328125 C 2.820312 -2.378906 4.300781 -3.617188 5.59375 -5.046875 C 6.882812 -6.472656 8.128906 -7.921875 9.328125 -9.390625 C 9.910156 -10.085938 10.488281 -10.785156 11.0625 -11.484375 C 11.644531 -12.179688 12.25 -12.859375 12.875 -13.515625 Z M 12.875 -13.515625 "/></g></g></g><g fill="#42490d" fill-opacity="1"><g transform="translate(300.167693, 202.699009)"><g><path d="M 24.765625 -50.265625 C 25.222656 -49.847656 25.40625 -49.453125 25.3125 -49.078125 C 25.21875 -48.710938 24.992188 -48.300781 24.640625 -47.84375 C 24.179688 -47.300781 23.75 -46.71875 23.34375 -46.09375 C 22.9375 -45.476562 22.519531 -44.878906 22.09375 -44.296875 C 22.050781 -44.253906 22.019531 -44.210938 22 -44.171875 C 21.976562 -44.140625 21.953125 -44.101562 21.921875 -44.0625 C 19.828125 -41.050781 17.835938 -38.019531 15.953125 -34.96875 C 11.691406 -28.039062 7.859375 -20.789062 4.453125 -13.21875 C 1.054688 -5.644531 -1.664062 2.179688 -3.71875 10.265625 C -5.101562 15.828125 -5.738281 20.910156 -5.625 25.515625 C -5.625 25.703125 -5.644531 25.894531 -5.6875 26.09375 C -5.6875 26.519531 -5.664062 26.925781 -5.625 27.3125 C -5.582031 27.695312 -5.410156 28.046875 -5.109375 28.359375 C -4.710938 28.816406 -4.050781 29.101562 -3.125 29.21875 C -2.976562 29.21875 -2.84375 29.296875 -2.71875 29.453125 C -2.53125 29.609375 -2.414062 29.84375 -2.375 30.15625 C -2.332031 30.5 -2.398438 30.726562 -2.578125 30.84375 C -2.753906 30.957031 -2.957031 31.015625 -3.1875 31.015625 L -3.25 31.015625 C -5.375 31.015625 -6.742188 30.007812 -7.359375 28 C -7.671875 26.925781 -7.816406 25.882812 -7.796875 24.875 C -7.773438 23.875 -7.707031 22.890625 -7.59375 21.921875 L -7.53125 21.34375 C -7.03125 15.539062 -5.976562 9.921875 -4.375 4.484375 C -2.769531 -0.941406 -0.847656 -6.210938 1.390625 -11.328125 C 3.628906 -16.453125 5.945312 -21.429688 8.34375 -26.265625 C 10.394531 -30.359375 12.492188 -34.40625 14.640625 -38.40625 C 16.785156 -42.414062 19.40625 -46.097656 22.5 -49.453125 C 22.539062 -49.535156 22.632812 -49.671875 22.78125 -49.859375 C 22.9375 -50.054688 23.101562 -50.238281 23.28125 -50.40625 C 23.457031 -50.582031 23.660156 -50.671875 23.890625 -50.671875 C 24.117188 -50.671875 24.410156 -50.535156 24.765625 -50.265625 Z M 24.765625 -50.265625 "/></g></g></g></svg>